<svg width="160" height="80" viewBox="0 0 160 80" fill="none" xmlns="http://www.w3.org/2000/svg">
<path d="M87.1 53.1C87.3 52.7 87.5 52.3 87.5 51.9C87.5 51.5 87.6 51.1 88 51C88.7 50.7 89.4 51.1 90 51.5C90.3 51.7 91.3 53 91.3 53C91 49.3 87.3 45.9 81.6 45.6C81 45.6 80.5 45.6 79.9 45.6C79.3 45.6 78.8 45.6 78.2 45.6C72.5 45.9 68.8 49.3 68.5 53C68.5 53 69.6 51.7 69.8 51.5C70.3 51.1 71.1 50.7 71.8 51C72.2 51.2 72.2 51.6 72.3 51.9C72.3 52.3 72.5 52.7 72.7 53.1C73.3 54 74.4 54.3 75.3 54.5C76.3 54.8 77.3 54.9 78.3 54.5C78.7 54.4 79 54.2 79.3 53.9C79.4 53.8 79.7 53.5 79.8 53.5C79.9 53.5 80.2 53.8 80.3 53.9C80.6 54.2 80.9 54.4 81.3 54.5C82.3 54.8 83.3 54.7 84.3 54.5C85.4 54.3 86.5 54 87.1 53.1Z" fill="white"/>
<path d="M107.1 30.4C107.1 30.4 106.9 33.8 106.7 35.6C106.3 40.2 105.3 44.8 102 48.1C100.9 49.2 99.4001 49.4 99.4001 49.4C100.5 47.2 101.7 45 102.6 42.7C103.5 40.4 104.1 37.9 104.8 35.6C104.8 35.6 102.4 36.4 101.9 36.6C101.9 36.1 104.3 27.2 104.3 27.2C104.2 27.3 100.2 35.9 100 36.2C99.9001 36.3 100 36.5 100.1 36.6C101.8 38 101.2 40.6 100.5 41.4C99.5001 42.6 98.2001 43.7 97.4001 45.6C97.1001 46.4 96.5001 48.6 96.5001 48.6C96.3001 48.5 96.1001 43.6 97.6001 41.4C98.4001 40.3 98.4001 37.4 97.3001 36.8C96.2001 36.2 96.0001 35.6 96.8001 34.5C96.8001 34.5 96.8001 34.5 96.8001 34.4C93.3001 34.1 94.4001 30.6 91.8001 30.4C92.5001 29.9 93.3001 30.1 94.0001 30.5C94.7001 30.9 94.7001 30.9 95.2001 31.6C95.4001 31.9 96.3001 32.5 96.8001 32.6C100.1 33.3 99.8001 30 99.8001 30C98.1001 29.9 96.7001 29.2 96.6001 28.1C97.5001 28 98.7001 28.3 99.4001 27.8C100 27.4 100.5 26.2 100.5 25.4C98.8001 26.2 98.8001 26.2 98.0001 25.5C100.6 22.9 102.8 16.4 102.8 14.3C103.8 15.2 104 15.9 104.3 16.5C106.1 15.8 107.4 15.6 107.2 13.1L105.2 14.1C105.3 13.8 105.4 13.5 105.6 13.2C105.9 12.7 106.2 12.4 106.6 12C107.3 11.2 108.2 10.2 108.5 9.1C108.7 8.4 108.9 7.7 109 7C109.1 6.3 109.2 5.4 109.1 4.7C108.9 3.4 107.9 2.2 106.4 2.5C105.6 2.6 104.9 3 104.1 3.4C103.3 3.8 102.4 4.1 101.6 4.4C100.8 4.7 99.9001 5 99.0001 5.2C98.1001 5.5 93.7001 5.8 92.8001 5.9L96.5001 6.5C96.8001 6.5 97.0001 6.5 97.3001 6.5C98.2001 6.3 100.2 5.7 101 5.5C101.9 5.3 104.4 4.9 105.2 6.1C104.7 7.2 102.9 7.9 102.7 8.2C104.1 7.8 104.7 8.1 104.7 8.1C103.7 9.1 103.1 10 102.5 11.3C101.8 12.8 101.4 14.9 100.8 16.5C100.2 17.9 99.5001 19.2 98.6001 20.4C97.7001 21.7 96.6001 22.6 95.4001 23.3C96.6001 22 97.7001 20.3 98.4001 19C100.5 15 100.7 10.5 101 9.1C100 9.5 98.0001 9.3 98.0001 9.3C98.0001 9.3 101.3 7.8 102.3 7.3C101.8 7 101.3 6.8 100.9 6.8C98.7001 6.6 97.9001 7.3 96.5001 7.5C95.8001 7.6 90.6001 5.8 89.6001 5.6C89.6001 5.6 89.6001 5.6 89.7001 5.6C88.8001 5.4 88.0001 5.2 87.1001 5C87.0001 5 86.9001 5 86.8001 4.9C85.6001 5 84.8001 4.9 84.0001 4.8C83.0001 4.7 81.1001 4.6 80.3001 4.6C80.1001 4.6 79.9001 4.6 79.6001 4.6C78.8001 4.6 76.9001 4.7 75.9001 4.8C75.1001 4.9 74.4001 5 73.6001 5.1C73.5001 5.1 73.4001 5.1 73.3001 5.2C72.4001 5.4 71.6001 5.6 70.7001 5.8C70.8001 5.8 70.8001 5.8 70.8001 5.8C69.7001 6 64.6001 7.8 63.9001 7.7C62.5001 7.5 61.7001 6.8 59.5001 7C59.1001 7 58.6001 7.2 58.1001 7.5C59.1001 8 62.4001 9.5 62.4001 9.5C62.4001 9.5 60.3001 9.7 59.4001 9.3C59.7001 10.7 59.9001 15.1 62.0001 19.2C62.7001 20.5 63.8001 22.2 65.0001 23.5C63.8001 22.8 62.7001 21.9 61.8001 20.6C60.9001 19.4 60.2001 18.1 59.6001 16.7C58.9001 15.1 58.6001 13 57.9001 11.5C57.3001 10.2 56.8001 9.2 55.7001 8.3C55.7001 8.3 56.3001 8 57.7001 8.4C57.5001 8.1 55.8001 7.4 55.2001 6.3C56.0001 5.1 58.5001 5.5 59.4001 5.7C60.2001 5.9 62.2001 6.4 63.1001 6.7C63.4001 6.8 63.6001 6.8 63.9001 6.7L67.5001 6C66.5001 5.9 62.2001 5.6 61.3001 5.3C60.4001 5 59.6001 4.8 58.7001 4.5C57.8001 4.2 57.0001 3.8 56.2001 3.5C55.5001 3.2 54.7001 2.8 53.9001 2.6C52.4001 2.4 51.4001 3.6 51.2001 4.8C51.1001 5.5 51.2001 6.4 51.3001 7.1C51.4001 7.8 51.5001 8.5 51.8001 9.2C52.1001 10.2 53.0001 11.3 53.7001 12.1C54.1001 12.5 54.5001 12.8 54.7001 13.3C54.9001 13.6 55.0001 13.9 55.1001 14.2L53.1001 13.2C52.8001 15.7 54.2001 15.9 56.0001 16.6C56.2001 16.1 56.4001 15.3 57.5001 14.4C57.4001 16.5 59.7001 23 62.3001 25.6C61.5001 26.3 61.5001 26.3 59.8001 25.5C59.8001 26.3 60.3001 27.5 60.9001 27.9C61.6001 28.4 62.7001 28.1 63.7001 28.2C63.6001 29.3 62.2001 30 60.5001 30.1C60.5001 30.1 60.2001 33.4 63.5001 32.7C63.9001 32.6 64.8001 32 65.1001 31.7C65.6001 31 65.5001 31 66.3001 30.6C67.0001 30.2 67.8001 30 68.5001 30.5C65.9001 30.6 67.0001 34.2 63.5001 34.5C63.5001 34.5 63.5001 34.5 63.5001 34.6C64.3001 35.7 64.1001 36.3 63.0001 36.9C61.9001 37.5 61.9001 40.4 62.7001 41.5C64.2001 43.7 64.0001 48.6 63.8001 48.7C63.8001 48.7 63.2001 46.4 62.9001 45.7C62.1001 43.8 60.8001 42.7 59.8001 41.5C59.1001 40.7 58.5001 38.1 60.2001 36.7C60.3001 36.6 60.4001 36.4 60.3001 36.3C60.2001 36 56.2001 27.4 56.0001 27.3C56.0001 27.3 58.4001 36.3 58.4001 36.7C57.9001 36.6 55.5001 35.7 55.5001 35.7C56.2001 38.1 56.8001 40.5 57.7001 42.8C58.6001 45.1 59.8001 47.3 60.9001 49.5C60.9001 49.5 59.3001 49.3 58.3001 48.2C54.9001 44.8 54.0001 40.3 53.6001 35.7C53.4001 33.9 53.2001 30.5 53.2001 30.5C52.8001 32.2 52.2001 33.5 51.9001 35.2C51.5001 37.8 51.2001 38.7 51.8001 42.2C51.9001 42.5 52.1001 43.6 52.3001 43.8C54.6001 47.4 59.5001 54.4 59.5001 54.4L59.8001 52.2C60.1001 52.8 63.3001 59.9 63.3001 59.9C63.3001 58.2 62.4001 53.5 64.3001 52.7C64.9001 52.4 65.7001 53.1 65.8001 53.9C65.8001 54.8 65.8001 56.9 65.8001 56.9C67.2001 56.1 67.7001 55.7 68.4001 55.4C69.4001 54.9 71.5001 54.5 73.7001 55.1C73.7001 55.1 73.6001 55.1 73.6001 55C72.2001 54.1 70.4001 53.8 68.8001 54.2C68.5001 54.3 68.2001 54.3 67.9001 54.4C67.6001 54.4 67.3001 54.1 67.4001 53.8C67.7001 52.7 68.4001 50.5 68.6001 49.6C68.9001 48.3 68.8001 47.2 68.6001 45.9C68.2001 44.7 67.5001 43.7 66.1001 43.4C65.6001 43.3 65.5001 42.7 65.5001 42.3C65.4001 41.6 65.3001 41 65.3001 40.3C65.2001 38.8 65.5001 37.2 66.2001 35.7C66.5001 35 66.9001 34.3 67.5001 33.7C68.0001 33.1 68.7001 32.7 69.3001 32.2L69.4001 32.1C70.0001 31.6 69.9001 31.1 70.0001 30.4C70.0001 29.1 71.1001 28.5 72.3001 28.3C72.0001 28.5 71.8001 28.8 71.6001 29.1C71.4001 29.4 71.4001 30.7 71.4001 31C71.3001 32.3 71.1001 32.6 69.1001 33.2C70.8001 34.6 72.1001 35.6 73.6001 36.9C71.1001 37.5 70.1001 35.7 68.5001 34.7C68.6001 37.6 71.5001 37.9 73.0001 39.3C72.9001 39.4 70.2001 39.1 68.0001 38.4C69.0001 40.4 70.7001 40.1 72.1001 40.6C71.5001 41.2 70.1001 41.2 69.1001 41.3C68.8001 41.4 68.5001 41.3 68.1001 41.4C68.3001 41.7 68.5001 42.2 68.8001 42.4C69.6001 42.9 70.5001 43.5 71.4001 43.8C71.9001 44 72.5001 43.9 73.0001 43.8C75.0001 43.1 76.9001 42.3 79.0001 41.5C79.5001 41.3 79.9001 40.8 79.9001 40.3C79.9001 39.5 79.9001 38.7 79.8001 37.8C79.7001 37.4 79.1001 36.8 78.7001 36.7C76.0001 36.1 73.7001 34.5 73.0001 33C72.5001 31.9 72.7001 28.7 72.6001 28.2C72.6001 27.9 72.4001 26.5 71.8001 25.5C71.5001 25 70.9001 24.6 70.5001 24.4C69.8001 24 69.0001 23.7 68.2001 23.5C64.9001 22.5 63.4001 20.2 62.3001 17.9C62.0001 17.4 61.7001 16.3 61.4001 15.4C61.3001 14.9 61.6001 14.4 62.1001 14.3C62.3001 14.8 62.4001 15.2 62.7001 15.8C63.2001 16.8 63.8001 17.3 65.0001 17.3C67.7001 17.3 70.4001 17.8 71.9001 20.6C72.3001 21.3 72.7001 21.9 73.2001 22.5C72.4001 21.9 71.9001 20.9 70.7001 19.8C69.1001 18.3 67.2001 18.2 66.2001 18.2C64.8001 18.2 64.1001 17.8 64.1001 17.8C64.6001 18.7 65.4001 18.8 66.8001 19C67.0001 19 67.2001 19.1 67.3001 19.1C67.0001 20 67.0001 21 67.6001 21.6C68.2001 22.3 69.3001 22.5 70.0001 21.9C70.3001 21.7 70.5001 21.5 70.6001 21.2C70.9001 21.5 71.3001 21.9 71.6001 22.3C73.3001 24.2 75.4001 24.2 75.4001 24.2C75.4001 24.2 75.1001 22.6 74.9001 21.8C76.2001 21.3 75.5001 20.5 74.8001 19.8C73.9001 18.8 72.9001 17.8 72.0001 16.8C73.0001 16.5 73.7001 16 74.2001 15.6C74.2001 15.6 71.9001 16.1 69.8001 15.9C69.5001 15.9 69.1001 15.7 68.9001 15.4C70.5001 15.1 72.8001 14.2 73.6001 13.7C70.9001 12 67.5001 12.9 65.3001 11.8C67.2001 11.7 68.7001 11.5 70.6001 11C72.3001 10.6 75.5001 9.2 75.5001 9H68.5001C70.7001 8 72.7001 6.6 75.2001 6.6C76.3001 6.6 77.7001 6.8 78.9001 6.9C79.5001 7 80.5001 7 81.1001 6.9C82.4001 6.8 83.8001 6.6 84.8001 6.6C87.4001 6.5 89.3001 8 91.5001 9H84.5001C84.5001 9.2 87.7001 10.5 89.4001 11C91.4001 11.5 92.8001 11.7 94.7001 11.8C92.4001 12.9 89.1001 12 86.4001 13.7C87.2001 14.2 89.5001 15.1 91.1001 15.4C90.9001 15.6 90.5001 15.9 90.2001 15.9C88.1001 16.1 85.8001 15.6 85.8001 15.6C86.3001 16 87.0001 16.5 88.0001 16.8C87.0001 17.8 86.1001 18.8 85.2001 19.8C84.5001 20.5 83.9001 21.3 85.1001 21.8C84.9001 22.6 84.6001 24.2 84.6001 24.2C84.6001 24.2 86.8001 24.1 88.4001 22.3C88.7001 21.9 89.1001 21.6 89.4001 21.2C89.5001 21.5 89.7001 21.7 90.0001 21.9C90.8001 22.4 91.8001 22.2 92.4001 21.6C93.0001 21 93.0001 20 92.7001 19.2C92.9001 19.1 93.1001 19.1 93.2001 19.1C94.6001 18.9 95.4001 18.8 95.9001 17.9C95.9001 17.9 95.2001 18.2 93.8001 18.3C92.8001 18.3 90.9001 18.4 89.3001 19.9C88.1001 21.1 87.6001 22 86.8001 22.6C87.3001 22 87.8001 21.3 88.1001 20.7C89.6001 17.9 92.2001 17.4 95.0001 17.4C96.2001 17.4 96.9001 16.8 97.3001 15.9C97.6001 15.3 97.7001 14.9 97.9001 14.4C98.3001 14.3 98.8001 14.7 98.7001 15.1C98.5001 16 98.0001 17.4 97.7001 18C96.6001 20.3 95.1001 22.6 91.8001 23.6C91.0001 23.8 90.2001 24.1 89.5001 24.5C89.1001 24.7 88.6001 25.1 88.2001 25.6C87.6001 26.6 87.4001 27.9 87.4001 28.3C87.4001 28.8 87.6001 32 87.0001 33.1C86.3001 34.6 84.0001 36.1 81.9001 36.9C81.4001 37.1 80.8001 37.6 80.8001 38C80.7001 38.8 80.7001 39.7 80.7001 40.5C80.7001 41.1 81.1001 41.5 81.6001 41.7C83.7001 42.5 85.7001 43.3 87.6001 44C88.1001 44.2 88.8001 44.2 89.2001 44C90.1001 43.6 90.9001 43.1 91.8001 42.6C92.1001 42.4 92.3001 41.9 92.5001 41.6C92.2001 41.5 91.9001 41.6 91.5001 41.5C90.5001 41.3 89.2001 41.4 88.5001 40.8C89.9001 40.3 91.6001 40.6 92.6001 38.6C90.4001 39.4 87.7001 39.7 87.6001 39.5C89.1001 38 92.0001 37.8 92.1001 34.9C90.6001 35.9 89.5001 37.7 87.0001 37.1C88.5001 35.9 89.8001 34.8 91.5001 33.4C89.5001 32.8 89.3001 32.5 89.2001 31.2C89.2001 30.9 89.2001 29.6 89.0001 29.3C88.8001 29 88.5001 28.7 88.3001 28.5C89.5001 28.8 90.6001 29.3 90.6001 30.6C90.6001 31.3 90.6001 31.8 91.2001 32.3L91.3001 32.4C91.9001 32.9 92.6001 33.3 93.1001 33.9C93.6001 34.5 94.0001 35.2 94.4001 35.9C95.0001 37.3 95.3001 38.9 95.3001 40.5C95.3001 41.2 95.2001 41.8 95.1001 42.5C95.0001 42.9 94.9001 43.5 94.5001 43.6C93.1001 43.9 92.4001 44.8 92.0001 46.1C91.8001 47.4 91.7001 48.6 92.0001 49.8C92.2001 50.7 92.9001 52.9 93.2001 54C93.3001 54.3 93.0001 54.6 92.7001 54.6C92.4001 54.6 92.1001 54.5 91.8001 54.4C90.0001 53.7 88.3001 54 86.9001 55C86.9001 55 86.8001 55 86.8001 55.1C89.0001 54.5 91.0001 54.9 92.1001 55.4C92.8001 55.7 93.3001 56.1 94.7001 56.9C94.7001 56.9 94.7001 54.8 94.7001 53.9C94.7001 53.1 95.6001 52.5 96.2001 52.7C98.0001 53.5 97.2001 58.2 97.2001 59.9C97.2001 59.9 100.4 52.8 100.7 52.2L101 54.4C101 54.4 105.9 47.3 108.2 43.8C108.4 43.5 108.6 42.5 108.7 42.2C109.3 38.7 109 37.8 108.6 35.2C108.1 33.3 107.6 32.1 107.1 30.4Z" fill="white"/>
<path d="M85.8003 31.3C85.8003 30.4 85.0003 30.1 85.0003 30.1C84.9003 31.6 83.4003 32.2 80.1003 32.3C76.8003 32.2 75.2003 31.6 75.1003 30.1C75.1003 30.1 74.3003 30.5 74.3003 31.3C74.3003 32.2 75.2003 32.4 75.5003 32.4C76.3003 32.6 77.6003 33.2 80.0003 33.2C82.5003 33.2 83.8003 32.6 84.6003 32.4C84.9003 32.4 85.8003 32.2 85.8003 31.3Z" fill="white"/>
<path d="M45.0001 77.1H40.6001L37.2001 71.8V77.1H33.6001V63.4H38.9001C40.3001 63.4 41.5001 63.8 42.3001 64.5C43.2001 65.2 43.6001 66.3 43.6001 67.7C43.6001 68.7 43.3001 69.5 42.8001 70.2C42.3001 70.9 41.5001 71.4 40.6001 71.5L45.0001 77.1ZM37.2001 69.5H37.5001C37.8001 69.5 38.1001 69.5 38.4001 69.4C38.7001 69.3 38.9001 69.3 39.2001 69.2C39.4001 69.1 39.6001 68.9 39.8001 68.7C39.9001 68.5 40.0001 68.2 40.0001 67.8C40.0001 67.4 39.9001 67.2 39.8001 66.9C39.7001 66.7 39.5001 66.5 39.2001 66.4C39.0001 66.3 38.7001 66.2 38.4001 66.2C38.1001 66.2 37.8001 66.1 37.5001 66.1H37.2001V69.5Z" fill="white"/>
<path d="M49.4999 66.4V68.7H53.4999V71.7H49.4999V74H53.6999V77H45.8999V63.4H53.6999V66.4H49.4999Z" fill="white"/>
<path d="M55.8999 63.4H60.8999C61.7999 63.4 62.6999 63.6 63.5999 63.9C64.3999 64.2 65.1999 64.7 65.7999 65.4C66.3999 66 66.8999 66.8 67.2999 67.6C67.6999 68.4 67.7999 69.3 67.7999 70.3C67.7999 71.2 67.5999 72.1 67.2999 73C66.8999 73.8 66.3999 74.6 65.7999 75.2C65.1999 75.8 64.3999 76.3 63.5999 76.7C62.7999 77.1 61.8999 77.2 60.8999 77.2H55.8999V63.4ZM59.4999 74H60.2999C60.7999 74 61.3999 73.9 61.7999 73.8C62.2999 73.6 62.6999 73.4 63.0999 73.1C63.4999 72.8 63.6999 72.4 63.9999 71.9C64.1999 71.4 64.2999 70.8 64.2999 70.2C64.2999 69 63.8999 68.1 63.1999 67.4C62.4999 66.7 61.4999 66.4 60.3999 66.4H59.5999V74H59.4999Z" fill="white"/>
<path d="M79.7002 77.1H76.1002V66.4H73.2002V63.4H82.6002V66.4H79.7002V77.1Z" fill="white"/>
<path d="M87.4999 77.1H83.8999V63.4H87.4999V77.1Z" fill="white"/>
<path d="M103.4 69.4C103.4 70.6 103.3 71.6 103.1 72.4C102.9 73.2 102.6 74 102 74.8C101.3 75.7 100.5 76.4 99.6002 76.8C98.6002 77.2 97.6002 77.5 96.4002 77.5C95.3002 77.5 94.4002 77.3 93.5002 77C92.6002 76.7 91.8002 76.2 91.2002 75.5C90.5002 74.9 90.0002 74.1 89.7002 73.2C89.3002 72.3 89.2002 71.3 89.2002 70.3C89.2002 69.2 89.4002 68.2 89.7002 67.3C90.1002 66.4 90.6002 65.6 91.2002 65C91.9002 64.3 92.6002 63.8 93.6002 63.5C94.5002 63.2 95.5002 63 96.6002 63C98.0002 63 99.3002 63.3 100.3 64C101.4 64.6 102.2 65.6 102.7 66.9L99.3002 68.3C99.0002 67.6 98.7002 67.1 98.2002 66.7C97.7002 66.2 97.0002 66 96.3002 66C95.7002 66 95.2002 66.1 94.8002 66.4C94.4002 66.6 94.0002 67 93.7002 67.4C93.4002 67.8 93.2002 68.3 93.0002 68.8C92.8002 69.3 92.8002 69.8 92.8002 70.4C92.8002 70.9 92.9002 71.5 93.0002 72C93.2002 72.5 93.4002 73 93.7002 73.4C94.0002 73.8 94.4002 74.1 94.8002 74.4C95.3002 74.6 95.8002 74.8 96.3002 74.8C97.1002 74.8 97.8002 74.6 98.3002 74.2C98.8002 73.8 99.1002 73.2 99.2002 72.4H96.3002V69.6H103.4V69.4Z" fill="white"/>
<path d="M108.6 66.4V68.7H112.6V71.7H108.6V74H112.8V77H105V63.4H112.8V66.4H108.6Z" fill="white"/>
<path d="M126.4 77.1H122L118.6 71.8V77.1H115V63.4H120.3C121.7 63.4 122.9 63.8 123.7 64.5C124.6 65.2 125 66.3 125 67.7C125 68.7 124.7 69.5 124.2 70.2C123.7 70.9 122.9 71.4 122 71.5L126.4 77.1ZM118.6 69.5H118.9C119.2 69.5 119.5 69.5 119.8 69.4C120.1 69.4 120.3 69.3 120.6 69.2C120.8 69.1 121 68.9 121.2 68.7C121.3 68.5 121.4 68.2 121.4 67.8C121.4 67.4 121.3 67.2 121.2 66.9C121.1 66.7 120.9 66.5 120.6 66.4C120.4 66.3 120.1 66.2 119.8 66.2C119.5 66.2 119.2 66.1 118.9 66.1H118.6V69.5Z" fill="white"/>
</svg>
