<svg width="160" height="80" viewBox="0 0 160 80" fill="none" xmlns="http://www.w3.org/2000/svg">
<path d="M153.5 48.6L153.1 46.1L152.2 48.6H151.5L150.6 46.1L150.1 48.6H149.4L150.1 44.5H150.9L151.9 47.3L152.9 44.5H153.7L154.4 48.6H153.6H153.5ZM148.4 48.6H147.6V45.3H146.8V44.5H149.1V45.3H148.3V48.6H148.4ZM137.5 56H135.3V51.1L131.9 44.6H134.3L136.5 48.7L138.7 44.6H141L137.6 51.1V56H137.5ZM131.2 56L130.3 53.7H125.6L124.6 56H122.3L126.8 44.5H129.1L133.6 56H131.3H131.2ZM127.9 47.5L126.3 51.4H129.4L127.9 47.5ZM115.5 44.5H117.7V53.8H120.9V55.9H115.5V44.5ZM111.7 50.9C110.9 51 110.1 51.1 109.4 51.1V56H107.2V44.5H109.5C110.5 44.5 111.4 44.5 112.2 44.8C112.7 45 113.2 45.4 113.6 45.9C113.9 46.4 114.1 47.1 114.1 47.8C114.1 48.5 113.9 49.2 113.5 49.8C113 50.4 112.4 50.8 111.7 51V50.9ZM111.4 46.8C111 46.6 110.4 46.5 110 46.6H109.4V49H110.1C110.5 49 110.9 49 111.3 48.9C111.5 48.9 111.7 48.7 111.8 48.5C111.9 48.3 112 48.1 112 47.8C112 47.5 111.9 47 111.4 46.8ZM94.2998 46.1C92.0998 46.1 90.2998 47.8 90.1998 49.9C90.1998 50.8 90.2998 51.5 90.6998 52.1C90.9998 52.7 91.4998 53.2 92.0998 53.5C92.6998 53.8 93.4998 54 94.1998 54C94.8998 54 95.3998 53.9 95.9998 53.7C96.6998 53.4 97.2998 52.9 97.7998 52.3L99.2998 53.9C98.5998 54.7 97.6998 55.2 96.7998 55.7C95.9998 56 94.9998 56.2 94.0998 56.2C92.3998 56.2 90.7998 55.7 89.5998 54.5C87.1998 52.2 87.0998 48.3 89.4998 45.9C89.8998 45.4 90.4998 45.1 90.9998 44.8C91.9998 44.3 93.0998 44 94.1998 44C96.1998 44 97.9998 44.8 99.3998 46.3L97.7998 47.7C96.8998 46.6 95.5998 46 94.1998 46L94.2998 46.1ZM83.8998 44.3H86.1998V56H83.8998V44.3ZM79.8998 56H77.5998V46.4H75.4998V44.2H82.0998V46.4H79.8998V56ZM73.4998 56L72.4998 53.6H67.5998L66.5998 56H64.2998L68.8998 44.3H71.1998L75.7998 56H73.4998ZM70.0998 47.4L68.4998 51.5H71.6998L70.0998 47.4ZM59.4998 48.5L56.9998 55.9H54.9998L52.4998 48.5L51.1998 55.9H48.8998L50.9998 44.1H53.1998L55.8998 52.3L58.6998 44.1H60.8998L62.8998 55.8H60.6998L59.4998 48.5ZM44.9998 55.5C43.9998 56 42.9998 56.3 41.9998 56.3C40.9998 56.3 39.6998 56 38.6998 55.5C37.6998 55 36.8998 54.2 36.3998 53.2C35.8998 52.2 35.5998 51.1 35.5998 50C35.5998 48.9 36.0998 47 37.1998 45.9C38.3998 44.5 40.1998 43.8 41.9998 43.9C42.9998 43.9 43.9998 44.1 44.8998 44.4C45.6998 44.8 46.4998 45.4 47.1998 46L45.5998 47.6C44.6998 46.6 43.3998 46 42.0998 46C40.7998 46 39.9998 46.4 39.0998 47.2C38.2998 47.9 37.8998 48.9 37.8998 50C37.8998 51.1 38.2998 52.1 39.0998 52.9C39.8998 53.7 40.9998 54.1 42.0998 54.1C42.7998 54.1 43.4998 54 44.0998 53.6C44.5998 53.3 45.0998 52.7 45.3998 52.1H41.9998V50H47.9998V50.5C47.8998 52.4 46.7998 54.3 44.9998 55.3V55.5ZM31.8998 53.6H27.0998L26.0998 56H23.6998L28.2998 44.3H30.5998L35.1998 56H32.8998C32.8998 56 31.8998 53.6 31.8998 53.6ZM29.4998 47.4L27.8998 51.5H31.0998L29.4998 47.4ZM19.8998 56L17.1998 51.1H16.9998V56H14.6998V44.3H17.0998C18.0998 44.3 18.9998 44.3 19.8998 44.6C20.3998 44.8 20.8998 45.2 21.2998 45.8C21.6998 46.4 21.7998 47 21.7998 47.7C21.7998 48.4 21.5998 49.1 21.2998 49.6C20.8998 50.1 20.2998 50.6 19.5998 50.8L22.3998 56H19.8998ZM19.4998 47.6C19.4998 47.1 19.1998 46.7 18.6998 46.5C18.2998 46.5 17.8998 46.4 17.4998 46.4H16.8998V48.8H17.5998C18.0998 48.8 18.5998 48.8 19.0998 48.5C19.3998 48.3 19.5998 48 19.4998 47.6ZM10.4998 50.8C9.6998 50.9 8.8998 51 8.0998 51V55.9H5.7998V44.2H8.1998C9.1998 44.2 10.0998 44.2 10.9998 44.5C11.4998 44.7 11.9998 45.1 12.3998 45.7C12.7998 46.3 12.8998 46.9 12.8998 47.6C12.8998 48.4 12.6998 49 12.2998 49.6C11.7998 50.1 11.1998 50.6 10.4998 50.8ZM10.0998 46.6C9.5998 46.4 9.0998 46.3 8.6998 46.4H7.9998V48.8H8.6998C9.0998 48.8 9.4998 48.8 9.8998 48.7C10.0998 48.7 10.2998 48.5 10.3998 48.3C10.4998 48.1 10.5998 47.9 10.5998 47.6C10.5998 47.3 10.3998 46.8 10.0998 46.6ZM123.6 72.9C111.2 73 101 63 100.9 50.6C100.8 38.2 110.8 28 123.2 27.9C135.6 27.8 145.8 37.8 145.9 50.2V50.4C145.9 62.8 135.9 72.9 123.6 72.9ZM123.6 30.2C112.5 30.2 103.5 39.4 103.6 50.5C103.6 61.5 112.6 70.4 123.6 70.5C134.7 70.5 143.7 61.5 143.7 50.4C143.7 39.3 134.7 30.2 123.6 30.2ZM130.4 42.5C122.7 43 119.6 33.9 126.6 33.4C134 32.9 137.9 42 130.4 42.5ZM122.2 25.4C118.4 25.5 114.6 26.7 111.3 28.7C110.8 27.2 108.7 21.4 103.2 18.2C107.1 18.4 110.7 20.7 112.5 24.2C112.5 24.2 110.4 15.1 110.9 8.29999C115.2 13.7 118.5 22.4 118.5 22.4C118.1 18.5 119.7 14.6 122.9 12.2C120.1 18 121.7 24.1 122.1 25.5L122.2 25.4Z" fill="white"/>
</svg>
