<svg width="160" height="80" viewBox="0 0 160 80" fill="none" xmlns="http://www.w3.org/2000/svg">
<path d="M116.9 19.4C117.7 19.6 118.6 19.8 119.4 20.1C121.5 20.9 123 22.4 124 24.3C124.7 25.6 125.2 27 125.4 28.5C125.4 28.8 125.5 29 125.5 29.3C125.5 29.4 125.3 29.6 125.2 29.6C123.8 29.6 122.4 29.6 121 29.6C120.5 29.6 120.6 29.2 120.6 29C120.5 28 120.2 27 119.6 26.2C118.9 25.1 117.8 24.4 116.5 24.3C115.9 24.2 115.3 24.2 114.8 24.2C112.5 24.1 110.7 25.6 110 27.4C109.7 28.1 109.6 28.8 109.4 29.6C108 29.6 106.5 29.6 105.1 29.6C104.8 29.6 104.7 29.4 104.7 29.2C104.5 28.1 104.2 27.1 103.6 26.2C102.7 24.9 101.4 24.1 99.8001 24.2C98.9001 24.2 98.0001 24.2 97.2001 24.4C95.5001 24.9 94.5001 26.1 93.9001 27.8C93.7001 28.3 93.7001 28.8 93.5001 29.3C93.5001 29.4 93.3001 29.6 93.2001 29.6C91.7001 29.6 90.2001 29.6 88.6001 29.6C88.8001 28.6 88.9001 27.7 89.2001 26.8C89.6001 25.6 90.2001 24.5 90.8001 23.5C91.7001 22 93.1001 20.9 94.7001 20.2C95.7001 19.8 96.8001 19.6 97.8001 19.3C98.0001 19.3 98.3001 19.3 98.5001 19.4C99.0001 19.4 99.5001 19.4 99.9001 19.4C100.1 19.4 100.3 19.4 100.5 19.4C101.1 19.6 101.8 19.8 102.4 20C104.2 20.7 105.5 21.9 106.7 23.4C106.8 23.5 106.9 23.6 107 23.8C108.7 21.3 111.1 19.9 114 19.3C114.2 19.3 114.5 19.3 114.7 19.4C115.2 19.4 115.7 19.4 116.3 19.4C116.6 19.5 116.7 19.5 116.9 19.4Z" fill="white"/>
<path d="M46.0999 31.1C46.1999 31.1 46.3999 31 46.4999 31C47.7999 31 49.1999 31 50.4999 31C50.8999 31 50.9999 31.1 50.8999 31.5C50.7999 32.6 50.8999 33.8 50.5999 34.9C49.6999 38.7 47.6999 41.6 43.8999 43C42.7999 43.4 41.5999 43.8 40.3999 43.8C39.2999 43.8 38.1999 44 37.0999 43.9C33.7999 43.5 30.9999 42.2 29.0999 39.5C27.8999 37.9 27.0999 36.1 26.8999 34.2C26.7999 33.2 26.8999 32.2 26.8999 31.1C26.9999 31.1 27.0999 31 27.2999 31C28.5999 31 29.8999 31 31.1999 31C31.5999 31 31.6999 31.1 31.6999 31.5C31.6999 32.3 31.6999 33.2 31.8999 34C32.3999 36.1 33.5999 37.6 35.5999 38.5C36.3999 38.9 37.2999 39 38.1999 39C39.2999 39 40.3999 39 41.4999 38.7C43.9999 37.9 45.4999 36.3 45.9999 33.8C46.1999 33 46.0999 32.2 46.0999 31.3C46.0999 31.2 46.0999 31.1 46.0999 31.1Z" fill="white"/>
<path d="M40.4999 19.4C41.3999 19.6 42.1999 19.8 43.0999 20C44.9999 20.5 46.4999 21.4 47.7999 22.8C49.0999 24.2 49.9999 25.8 50.4999 27.6C50.6999 28.2 50.7999 28.9 50.8999 29.6C50.6999 29.6 50.5999 29.7 50.5999 29.7C49.1999 29.7 47.7999 29.7 46.4999 29.7C46.1999 29.7 46.0999 29.7 46.0999 29.3C45.8999 27.7 45.0999 26.4 43.7999 25.5C42.7999 24.8 41.6999 24.4 40.5999 24.3C39.6999 24.2 38.6999 24.2 37.7999 24.2C35.6999 24.3 33.8999 25.1 32.6999 27C32.1999 27.7 31.8999 28.5 31.7999 29.3C31.7999 29.5 31.6999 29.6 31.3999 29.6C29.8999 29.6 28.3999 29.6 26.8999 29.6C26.9999 29 27.0999 28.3 27.1999 27.7C28.1999 24.3 30.1999 21.7 33.5999 20.2C34.4999 19.8 35.4999 19.6 36.4999 19.4C36.7999 19.3 37.0999 19.3 37.4999 19.2C37.5999 19.2 37.6999 19.3 37.8999 19.3C37.9999 19.3 38.1999 19.3 38.2999 19.2H38.3999C38.4999 19.2 38.4999 19.2 38.5999 19.2C38.6999 19.2 38.6999 19.2 38.7999 19.1C39.1999 19.7 39.7999 19.6 40.4999 19.4Z" fill="white"/>
<path d="M2.2002 19.9C2.2002 19.6 2.3002 19.6 2.6002 19.6C3.2002 19.6 3.7002 19.6 4.3002 19.6C6.7002 19.6 9.2002 19.6 11.6002 19.6C12.7002 19.6 13.7002 19.9 14.7002 20.2C16.8002 20.8 18.5002 21.9 19.9002 23.5C21.0002 24.8 21.6002 26.3 21.9002 27.9C22.0002 28.5 22.0002 29.1 22.0002 29.8C20.4002 29.8 18.8002 29.8 17.3002 29.8C17.2002 29.1 17.1002 28.3 16.9002 27.7C16.3002 25.9 15.0002 24.7 13.0002 24.5C11.2002 24.3 9.40019 24.4 7.60019 24.4C7.30019 24.4 7.2002 24.5 7.2002 24.8C7.2002 26 7.2002 27.3 7.2002 28.5C7.2002 28.9 7.20019 29.4 7.10019 29.9C6.90019 29.9 6.7002 29.9 6.5002 29.9C5.3002 29.9 4.1002 29.9 2.9002 29.9C2.7002 29.9 2.6002 29.9 2.5002 29.8C2.5002 29.7 2.5002 29.6 2.5002 29.5C2.5002 29.1 2.6002 28.8 2.6002 28.4C2.6002 26 2.6002 23.6 2.6002 21.2C2.6002 21 2.7002 20.7 2.6002 20.5C2.5002 20.2 2.3002 20.1 2.2002 19.9Z" fill="white"/>
<path d="M61.1002 39C62.8002 39 64.5002 39 66.1002 39C67.7002 39 69.4002 39 71.2002 39C71.2002 40.5 71.2002 42 71.2002 43.5C71.2002 43.8 71.1002 43.8 70.8002 43.8C66.3002 43.8 61.8002 43.8 57.3002 43.8C57.0002 43.8 56.6002 43.8 56.2002 43.8C56.2002 43.6 56.2002 43.4 56.2002 43.2C56.2002 39.3 56.2002 35.4 56.2002 31.6C56.2002 31 56.2002 31 56.8002 31C58.0002 31 59.2002 31 60.3002 31C61.0002 31 61.0002 31.1 61.0002 31.7C61.0002 34 61.0002 36.3 61.0002 38.6C61.1002 38.7 61.1002 38.8 61.1002 39Z" fill="white"/>
<path d="M157.4 24.2C155.8 24.2 154.2 24.3 152.6 24.2C152.2 24.2 152.2 24.3 152.2 24.6C152.2 26.1 152.2 27.5 152.2 29C152.2 29.6 152.2 29.6 151.6 29.6C150.2 29.6 148.8 29.6 147.3 29.6C147.3 29.2 147.3 28.9 147.3 28.6C147.3 27.2 147.3 25.8 147.3 24.4C147.3 24.3 147.1 24.2 147.1 24.1H147C145.5 24.1 143.9 24.1 142.4 24.1C141.8 24.1 141.7 24 141.7 23.4C141.7 22.1 141.7 20.6999 141.7 19.4C142.2 19.4 142.7 19.2999 143.2 19.2999C143.4 19.2999 143.5 19.2 143.7 19.2C144.4 19.2 145 19.2999 145.7 19.2999C149.3 19.2999 152.9 19.2999 156.5 19.2999C156.8 19.2999 157.2 19.4 157.5 19.4C157.5 19.5 157.5 19.5 157.5 19.6C157.5 19.7 157.6 19.9 157.6 20C157.6 20.1 157.6 20.1 157.6 20.2C157.5 20.3 157.4 20.4 157.4 20.5C157.4 21.1 157.4 21.8 157.4 22.4C157.4 22.6 157.5 22.7 157.6 22.9C157.6 23.5 157.5 23.8 157.4 24.2Z" fill="white"/>
<path d="M147.4 43.8C147.4 42.7 147.4 41.7 147.4 40.7C147.4 38.1 147.4 35.5 147.4 32.9C147.4 32.4 147.4 31.9 147.4 31.4C147.4 31.2 147.5 31 147.7 31C148 31 148.4 31 148.7 31C149.6 31 150.6 31 151.5 31C152.1 31 152.3 31.1 152.3 31.7C152.3 35.3 152.3 38.9 152.3 42.5C152.3 42.8 152.3 43.2 152.3 43.5C152.3 43.7 152.2 43.9 152 43.9C150.4 43.8 149 43.8 147.4 43.8Z" fill="white"/>
<path d="M22.0002 43.8C20.4002 43.8 18.8002 43.8 17.2002 43.8C17.2002 43.5 17.2002 43.2 17.2002 42.9C17.2002 39.1 17.2002 35.4 17.2002 31.6C17.2002 31.3 17.2002 31.2 17.5002 31.2C18.8002 31.2 20.0002 31.1 21.3002 31.1C22.1002 31.1 22.0002 31.3 22.0002 31.9C22.0002 35.7 22.0002 39.6 22.0002 43.4C22.0002 43.5 22.0002 43.6 22.0002 43.8Z" fill="white"/>
<path d="M109.6 31.4C109.6 33.3 109.6 35.1 109.6 37C109.6 39.1 109.6 41.2 109.6 43.3C109.6 43.5 109.6 43.6 109.6 43.8C108 43.8 106.4 43.8 104.7 43.8C104.7 43.6 104.7 43.4 104.7 43.2C104.7 39.3 104.7 35.3 104.7 31.4C104.7 31 104.9 30.9 105.2 30.9C106.5 30.9 107.9 30.9 109.2 30.9C109.5 30.9 109.5 31 109.6 31.4Z" fill="white"/>
<path d="M77.4002 30.9C78.0002 30.9 78.6002 30.9 79.1002 30.9C79.9002 30.9 80.8002 30.9 81.6002 30.9C82.0002 30.9 82.1002 31.1 82.1002 31.5C82.1002 35.4 82.1002 39.4 82.1002 43.3C82.1002 43.9 82.1002 43.8 81.5002 43.8C80.2002 43.8 79.0002 43.8 77.7002 43.8C77.3002 43.8 77.2002 43.7 77.2002 43.3C77.2002 41.8 77.2002 40.3 77.2002 38.8C77.2002 36.4 77.2002 34 77.2002 31.7C77.3002 31.5 77.4002 31.2 77.4002 30.9Z" fill="white"/>
<path d="M125.5 31C125.5 31.3 125.6 31.4999 125.6 31.7999C125.6 35.5999 125.6 39.3999 125.6 43.2999C125.6 43.8999 125.6 43.9 125 43.9C123.8 43.9 122.5 43.9 121.3 43.9C121.2 43.9 121 43.9 120.8 43.9C120.8 43.6 120.7 43.4 120.7 43.2C120.7 39.3 120.7 35.5 120.7 31.6C120.7 31.2 120.8 31.1 121.2 31.1C122.4 31.1 123.7 31.1 124.9 31.1C125.1 30.9 125.3 30.9 125.5 31Z" fill="white"/>
<path d="M136.1 43.8C134.5 43.8 133 43.8 131.4 43.8C131.4 43.6 131.4 43.4 131.4 43.2C131.4 39.3 131.4 35.3 131.4 31.4C131.4 31.1 131.5 31 131.8 31C133.3 31 134.7 31 136.2 31C136.2 31.3 136.3 31.6 136.3 31.8C136.3 35.4 136.3 39 136.3 42.6C136.2 42.9 136.2 43.3 136.1 43.8Z" fill="white"/>
<path d="M93.5003 43.8C92.0003 43.8 90.4003 43.8 88.8003 43.8C88.8003 43.2 88.8003 42.7 88.8003 42.1C88.8003 39 88.8003 35.8 88.8003 32.7C88.8003 32.3 88.8003 31.8 88.8003 31.4C88.8003 31 88.9003 30.9 89.2003 30.9C89.8003 30.9 90.4003 30.9 91.0003 30.9C91.7003 30.9 92.3003 30.9 93.0003 30.9C93.4003 30.9 93.6003 31 93.6003 31.5C93.6003 35.4 93.6003 39.2 93.6003 43.1C93.6003 43.3 93.5003 43.5 93.5003 43.8Z" fill="white"/>
<path d="M2.60029 31C2.80029 31 2.90029 30.9 3.10029 30.9C4.30029 30.9 5.60029 30.9 6.80029 30.9C7.10029 30.9 7.20029 31 7.20029 31.3C7.20029 34.8 7.20029 38.4 7.20029 41.9C7.20029 42.3 7.20029 42.8 7.20029 43.2C7.20029 43.4 7.10029 43.6 6.90029 43.5C5.40029 43.5 3.90029 43.5 2.40029 43.5C2.40029 43.5 2.40029 43.5 2.30029 43.4C2.30029 43.3 2.40029 43.2 2.40029 43C2.40029 42.8 2.50029 42.7 2.50029 42.5C2.50029 40 2.50029 37.5 2.50029 35C2.50029 34 2.50029 33 2.50029 32C2.50029 31.9 2.50029 31.8 2.40029 31.7C2.50029 31.6 2.50029 31.3 2.60029 31Z" fill="white"/>
<path d="M82.1003 19.3C82.1003 19.6 82.2003 19.9 82.2003 20.2C82.2003 23.2 82.2003 26.2 82.2003 29.2C82.2003 29.8 82.2003 29.8 81.6003 29.8C80.4003 29.8 79.2003 29.8 77.9003 29.8C77.3003 29.8 77.3003 29.8 77.3003 29.1C77.3003 26.7 77.3003 24.3 77.3003 21.9C77.3003 21.2 77.3003 20.5 77.3003 19.8C77.5003 19.7 77.6003 19.6 77.8003 19.6C78.8003 19.6 79.8003 19.6 80.8003 19.6C81.3003 19.5 81.7003 19.4 82.1003 19.3Z" fill="white"/>
<path d="M136.2 19.5C136.2 19.8 136.3 20 136.3 20.3C136.3 23.3 136.3 26.3 136.3 29.3C136.3 29.7 136.2 29.8 135.8 29.8C134.5 29.8 133.2 29.8 132 29.8C131.8 29.8 131.7 29.8 131.5 29.8C131.5 29.6 131.5 29.5 131.5 29.3C131.5 26.2 131.5 23.2 131.5 20.1C131.5 20 131.5 19.8 131.5 19.7C133 19.6 134.6 19.5 136.2 19.5Z" fill="white"/>
<path d="M61.0003 19.5C61.0003 19.8 61.1003 20 61.1003 20.3C61.1003 23.2 61.1003 26.1 61.1003 29.1C61.1003 29.7 61.1003 29.7 60.5003 29.7C59.2003 29.7 58.0003 29.7 56.7003 29.7C56.5003 29.7 56.3003 29.7 56.3003 29.4C56.3003 26.1 56.3003 22.9 56.3003 19.6C56.6003 19.6 57.0003 19.6 57.3003 19.6C58.5003 19.5 59.8003 19.5 61.0003 19.5Z" fill="white"/>
<path d="M41.5999 58.7C41.5999 58.9 41.5999 59.1 41.5999 59.2C41.5999 60.2 41.5999 60.2 40.6999 60.5C38.8999 61.2 36.5999 60.1 35.9999 58.7C35.7999 58.1 35.6999 57.5 35.4999 56.9C35.2999 56 35.4999 55.2 35.7999 54.4C36.1999 53.2 37.5999 51.9 39.1999 51.9C40.0999 51.9 40.8999 52 41.6999 52.3C41.9999 52.4 41.9999 52.6 41.8999 52.8C41.8999 52.8 41.8999 52.9 41.7999 52.9C41.3999 53.9 41.3999 53.9 40.3999 53.5C38.7999 52.9 37.6999 53.6 37.3999 55.3C37.1999 56.2 37.2999 57 37.5999 57.8C38.0999 58.8 38.8999 59.2 39.9999 58.9C40.4999 58.9 41.0999 58.8 41.5999 58.7Z" fill="white"/>
<path d="M120 60.5C119.3 60.5 118.8 60.5 118.2 60.5C118.2 59.9 118.2 59.3 118.2 58.7C118.3 57.7 118 56.8 117.5 55.9C116.8 54.7 116.1 53.4 115.4 52.1C116 52.1 116.6 52.1 117.2 52.1C117.3 52.1 117.4 52.2 117.4 52.3C117.9 53.3 118.4 54.2 118.9 55.2C119 55.3 119.1 55.4 119.2 55.5C119.7 54.6 120.2 53.7 120.6 52.8C120.8 52.3 121.1 52.1 121.7 52.1C122.1 52.2 122.4 52.1 122.9 52.1C122.8 52.3 122.7 52.5 122.6 52.6C121.8 54 121.1 55.4 120.3 56.7C119.8 57.5 120 58.4 120 59.2C119.9 59.6 120 60 120 60.5Z" fill="white"/>
<path d="M90.3 53.6C89.7 53.6 89.1 53.6 88.5 53.6C88.1 53.6 88 53.5 88 53.1C88 52.8 88 52.4 88 52C90.1 52 92.2 52 94.3 52C94.3 52.4 94.4 52.8 94.4 53.1C94.4 53.3 94.3 53.5 94 53.5C93.4 53.5 92.8 53.5 92.1 53.5C92.1 53.7 92.1 53.9 92.1 54.1C92.1 56.1 92.1 58 92.1 60C92.1 60.1 92 60.3 91.9 60.4C91.4 60.4 91 60.4 90.5 60.4C90.4 60.3 90.3 60.2 90.3 60.1C90.3 58 90.3 55.8 90.3 53.7C90.3 53.7 90.3 53.7 90.3 53.6Z" fill="white"/>
<path d="M64.4002 60.5C64.3002 60.4 64.2002 60.3 64.2002 60.2C64.2002 57.5 64.2002 54.8 64.2002 52.1C64.8002 52.1 65.4002 52.1 66.1002 52.1C66.1002 52.3 66.1002 52.4 66.1002 52.6C66.1002 55.1 66.1002 57.6 66.1002 60.2C66.1002 60.3 66.0002 60.4 66.0002 60.5C65.4002 60.5 64.9002 60.5 64.4002 60.5Z" fill="white"/>
<path d="M156.4 19.5C152.8 19.5 149.2 19.5 145.6 19.5C144.9 19.5 144.3 19.5 143.6 19.4C143.6 19.3 143.6 19.2 143.6 19.2C145.4 19.2 147.2 19.2 149 19.2C151.3 19.2 153.6 19.2 155.8 19.2C156 19.2 156.1 19.2 156.3 19.2C156.4 19.3 156.4 19.4 156.4 19.5Z" fill="white"/>
<path d="M2.6001 31C2.6001 31.3 2.5001 31.6 2.5001 31.8C2.5001 31.9 2.4001 31.9999 2.4001 32.0999C2.4001 35.4999 2.3001 38.9 2.3001 42.2C2.2001 42.1 2.1001 42.1 2.1001 42C2.1001 39.5 2.1001 37 2.1001 34.5C2.1001 33.5 2.1001 32.4 2.1001 31.4C2.1001 31.1 2.2001 30.9 2.6001 31Z" fill="white"/>
<path d="M2.5001 29.3C2.5001 29.4 2.5001 29.5 2.5001 29.6C2.2001 29.6 2.1001 29.5 2.1001 29.2C2.1001 27.6 2.2001 26 2.2001 24.3C2.2001 23 2.2001 21.7 2.2001 20.4C2.7001 20.5 2.5001 20.8 2.5001 21.1C2.5001 21.9 2.4001 22.7 2.4001 23.5C2.4001 25.3 2.4001 27.2 2.4001 29C2.3001 29.1 2.4001 29.2 2.5001 29.3Z" fill="white"/>
<path d="M61 19.5C59.8 19.5 58.5 19.5 57.3 19.5C57 19.5 56.6 19.5 56.3 19.5C56.2 19.2 56.4 19.1 56.6 19.1C57.9 19.1 59.3 19.1 60.6 19.1H60.7C61 19.2 61 19.4 61 19.5Z" fill="white"/>
<path d="M136.2 19.5C134.6 19.6 133 19.6 131.5 19.7C131.4 19.4 131.5 19.3 131.9 19.3C133.2 19.3 134.6 19.3 135.9 19.3H136C136.1 19.2 136.2 19.2 136.2 19.5Z" fill="white"/>
<path d="M82.1001 19.3C81.7001 19.4 81.3001 19.5 81.0001 19.6C80.0001 19.6 79.0001 19.6 78.0001 19.6C77.8001 19.6 77.7001 19.7 77.5001 19.8C77.4001 19.4 77.6001 19.3 78.0001 19.3C79.3001 19.3 80.7001 19.3 82.1001 19.3C82.0001 19.3 81.9001 19.2 82.1001 19.3Z" fill="white"/>
<path d="M157.6 23.2C157.5 23 157.4 22.9 157.4 22.7C157.4 22.1 157.4 21.4 157.4 20.8C157.4 20.7 157.5 20.6 157.6 20.5C157.6 20.7 157.6 20.9 157.6 21.1C157.6 21.2 157.8 21.4 157.9 21.5C157.9 22 157.9 22.5 157.9 23C157.8 23.1 157.8 23.1 157.7 23.2C157.7 23 157.7 23.1 157.6 23.2Z" fill="white"/>
<path d="M143.7 19.2C143.7 19.3 143.7 19.4 143.7 19.4C143.5 19.4 143.4 19.5 143.2 19.5C142.7 19.5 142.2 19.6 141.7 19.6C141.7 19.3 141.8 19.2 142.1 19.2C142.6 19.2 143.1 19.2 143.7 19.2Z" fill="white"/>
<path d="M157.9 21.4C157.8 21.3 157.7 21.1 157.6 21C157.5 20.8 157.6 20.6 157.6 20.4C157.6 20.3 157.6 20.3 157.6 20.2C157.6 20.1 157.5 19.9 157.5 19.8C157.5 19.7 157.5 19.7 157.5 19.6C157.6 19.5 157.6 19.5 157.7 19.4C157.8 19.6 158 19.7 158 19.9C158 20.4 157.9 20.9 157.9 21.4Z" fill="white"/>
<path d="M40.5 19.4C39.8 19.5 39.2 19.6 38.5 19.3C38.5 19.2 38.5 19.2 38.5 19.1C39.2 19.3 39.8 19.4 40.5 19.4Z" fill="white"/>
<path d="M157.6 23.2C157.6 23.1 157.7 23.1 157.7 23C157.8 22.9 157.8 22.9 157.9 22.8C157.9 23.2 157.9 23.5 157.9 23.9C157.9 24.3 157.6 24.2 157.4 24.2C157.5 23.8 157.6 23.5 157.6 23.2Z" fill="white"/>
<path d="M100.7 19.4C100.5 19.4 100.3 19.4 100.1 19.4C99.6002 19.4 99.1002 19.4 98.7002 19.4C98.7002 19.3 98.7002 19.2 98.7002 19.2C99.3002 19.2 100 19.1 100.7 19.4Z" fill="white"/>
<path d="M116.9 19.4C116.8 19.4 116.6 19.5 116.5 19.4C116 19.4 115.5 19.4 114.9 19.4C114.9 19.3 114.9 19.3 114.9 19.2C115.5 19.3 116.2 19.4 116.9 19.4Z" fill="white"/>
<path d="M157.6 19.4999C157.5 19.5999 157.5 19.6 157.4 19.7C157.1 19.7 156.7 19.6 156.4 19.6C156.4 19.5 156.4 19.3999 156.4 19.2999C156.8 19.2999 157.3 18.9999 157.6 19.4999Z" fill="white"/>
<path d="M2.1001 42.1C2.2001 42.2 2.3001 42.2 2.3001 42.3C2.3001 42.5 2.3001 42.7 2.3001 42.8C2.3001 42.9 2.4001 43.1 2.5001 43.2C2.5001 43.3 2.4001 43.4 2.4001 43.6C2.3001 43.6 2.2001 43.6 2.1001 43.6C2.1001 43 2.1001 42.6 2.1001 42.1Z" fill="white"/>
<path d="M2.4001 21.1C2.4001 20.8 2.5001 20.5 2.1001 20.4C2.1001 20.2 2.2001 20.1 2.2001 19.9C2.3001 20.1 2.5001 20.2 2.6001 20.4C2.7001 20.6 2.6001 20.9 2.6001 21.1C2.5001 21.1 2.4001 21.1 2.4001 21.1Z" fill="white"/>
<path d="M38.5002 19.2C38.5002 19.3 38.5002 19.3 38.5002 19.4C38.4002 19.4 38.4002 19.4 38.3002 19.5C38.2002 19.5 38.2002 19.5 38.1002 19.5H38.0002C37.9002 19.5 37.7002 19.6 37.6002 19.6C37.5002 19.6 37.4002 19.5 37.2002 19.5C37.7002 19.3 38.1002 19.3 38.5002 19.2Z" fill="white"/>
<path d="M98.7 19.2C98.7 19.3 98.7 19.4 98.7 19.4C98.5 19.4 98.2 19.3999 98 19.2999C98.2 19.2999 98.4 19.3 98.7 19.2Z" fill="white"/>
<path d="M114.9 19.2C114.9 19.3 114.9 19.3 114.9 19.4C114.7 19.4 114.4 19.3999 114.2 19.2999C114.4 19.2999 114.6 19.3 114.9 19.2Z" fill="white"/>
<path d="M38.3003 19.5C38.4003 19.5 38.4003 19.5 38.5003 19.4C38.5003 19.4 38.4003 19.4 38.3003 19.5Z" fill="white"/>
<path d="M2.4002 21.1C2.5002 23.5 2.5002 25.9 2.5002 28.3C2.5002 28.7 2.5002 29 2.4002 29.4C2.3002 29.3 2.2002 29.2 2.2002 29C2.2002 27.2 2.2002 25.3 2.2002 23.5C2.3002 22.7 2.4002 21.9 2.4002 21.1Z" fill="white"/>
<path d="M2.50029 43.2C2.40029 43.1 2.40029 42.8999 2.30029 42.7999C2.30029 42.5999 2.30029 42.3999 2.30029 42.2999C2.30029 38.8999 2.40029 35.5 2.40029 32.2H2.50029C2.50029 33.2 2.50029 34.2 2.50029 35.2C2.50029 37.7 2.50029 40.2 2.50029 42.7C2.60029 42.9 2.50029 43 2.50029 43.2Z" fill="white"/>
<path d="M2.50001 32.1C2.40001 32 2.50001 31.9 2.50001 31.8C2.50001 31.9 2.50001 32 2.50001 32.1Z" fill="white"/>
</svg>
