<svg width="160" height="80" viewBox="0 0 160 80" fill="none" xmlns="http://www.w3.org/2000/svg">
<path d="M137.4 23.4H160V30H152.1V57.9H145.3V30H137.4V23.4ZM108.1 23.4H114.2L127.6 44.5V23.4H134.4V57.9H128.3L115 36.8V57.9H108.2V23.4H108.1ZM86.5002 23.4H104.4V30H88.6002V37.4H102V44H88.6002V51.4H104.4V58H86.5002V69.6H85.2002V11H86.5002V23.4Z" fill="white"/>
<path d="M32 23.4H54.6V30H39.1V37.4H52.5V44H39.1V51.4H54.6V58H32V23.4ZM2 23.4H8.3L21.5 44.5V23.4H28.3V57.9H22.2L8.8 36.8V57.9H2V23.4ZM57.8 23.4H80.4V30H72.5V57.9H65.7V30H57.8V23.4Z" fill="white"/>
</svg>
