<svg width="160" height="80" viewBox="0 0 160 80" fill="none" xmlns="http://www.w3.org/2000/svg">
<path d="M21.6 38.5H11.1L9.5 43.5C9 44.6 8.7 45.6 8.7 46.1C8.7 46.6 9 47.2001 9.2 47.4001C9.7 47.7001 10.5 47.9001 11.8 48.2001V49H3.5V48.2001C4.6 47.9001 5.3 47.7 5.6 47.1C6.4 46.3 7.2 45 8 42.6L17.2 16.8H18L27.2 42.8C27.7 44.9 28.5 46.2 29 47C29.8 47.5 30.6 47.8 31.6 48.1V48.9001H21.1V48.1C22.2 47.8 22.9 47.8 23.2 47.3C23.7 47 23.7 46.5 23.7 46C23.7 45.5 23.4 44.4 22.9 42.8L21.6 38.3V38.5ZM20.9 37L16.4 24.4L11.9 37H20.8H20.9Z" fill="white"/>
<path d="M44.3 25.4L50.6 42.7001L56.6 25.4H63.2V26.2001C62.4 26.2001 61.9 26.5 61.6 26.5C61.1 26.8 60.8 27 60.5 27.6C60.2 27.9 60.2 28.4 60.2 28.9V45.5C60.2 46 60.2 46.6 60.5 46.8C60.8 47.3 61 47.6001 61.3 47.9001C61.8 48.2001 62.4 48.2001 63.1 48.2001V49.3H53.9V48.2001C54.7 48.2001 55.2 48.2001 55.5 47.9001C55.8 47.6001 56 47.1 56.3 46.8C56.6 46.3 56.6 45.7001 56.6 45.2001V28.9L49.8 49.1H49L42.4 29.9H42.1V44.1C42.1 45.2 42.1 45.7001 42.4 46.2001C42.4 46.7001 42.7 47.3 42.9 47.5C43.2 47.8 43.4 47.8 44 48H45.6V49.1H38V48C38.8 48 39.3 48.0001 39.8 47.7001C40.1 47.4001 40.3 47.2001 40.6 46.9001C40.9 46.4001 40.9 46.1 40.9 45.6V29.3C40.9 28.5 40.9 28 40.6 27.5C40.3 27.2 40.1 26.7 39.8 26.4C39.3 26.4 38.7 26.1 38 26.1V25.3L44.3 25.4ZM70.3 49V47.9001H71.1C71.4 47.9001 71.6 47.6001 71.9 47.4001C72.2 47.1001 72.4 46.6 72.7 46.1C73 45.6 73.5 44.8001 73.8 43.7001L80.4 24.5H80.9L88.3 45C88.6 45.8 88.8 46.3 89.1 46.6C89.4 47.1 89.6 47.4001 89.9 47.7001C90.2 47.7001 90.4 48 90.7 48H91.5V49.1H83.4V48H84.5L85 47.5C85 47.5 85.3 47.2 85.3 47C85.3 46.8 85.3 46.2001 85 45.9001C85 45.6001 84.7 45.1 84.7 44.8L83.4 41.6H76.3L75.2 44.8C75.2 45.1 74.9 45.3 74.9 45.6V46.4001C74.9 46.7001 74.9 46.9001 75.2 47.2001C75.2 47.5001 75.5 47.7001 75.7 47.7001C75.7 47.7001 76 48 76.2 48H76.7V49.1H70.4L70.3 49ZM76.6 40.1H82.6L79.4 31.4L76.6 40.1ZM112.1 25.4L112.4 30.9H111.6C111.6 30.1 111.3 29.3 111.3 28.8C111 28.3 110.8 28 110.5 27.5C110 27.2 109.7 27.2 109.4 27H104.9V44.1C104.9 44.6 104.9 45.2001 105.2 45.7001C105.2 46.2001 105.2 46.8 105.5 47C105.8 47.3 106 47.5 106.6 47.8C106.9 48.1 107.4 48.1 108.2 48.1V49.2001H98.5V48.1C99.3 48.1 99.8 48.1 100.3 47.8C100.6 47.5 100.8 47.3 101.1 47C101.4 46.7 101.4 46.2001 101.4 45.7001C101.7 45.2001 101.7 44.6 101.7 44.1V27H98.8C98 27 97.5 27 97 27.3C96.5 27.3 96.2 27.6 95.9 28.1C95.6 28.4 95.4 28.9 95.4 29.4C95.1 29.9 95.1 30.5 95.1 31H94.3L94.6 25.5H112.2L112.1 25.4ZM129.7 49H120.2V47.9001C121 47.9001 121.5 47.9 121.8 47.6C122.3 47.6 122.6 47.3 122.6 46.8C122.9 46.5 123.1 46.3001 123.1 45.7001V28.6C123.1 28.1 123.1 27.5 122.8 27.3C122.5 26.8 122.3 26.5001 122 26.2001C121.5 26.2001 120.9 25.9 120.2 25.9V25.1H129.7V25.9C128.9 25.9 128.4 26.2001 127.9 26.2001C127.6 26.5001 127.4 26.7 127.1 27.3C126.8 27.6 126.8 28.1 126.8 28.6V45.7001C126.8 46.2001 127.1 46.5 127.1 46.8C127.4 47.3 127.6 47.6 128.2 47.6C128.5 47.9 129 47.9001 129.8 47.9001L129.7 49ZM157.3 33H156.5C156.5 32.7 156.2 32.5 156.2 31.9C156.2 31.3 155.9 31.4 155.7 30.8C155.7 30.5 155.4 30.3001 155.2 29.7001C155.2 29.4001 154.9 29.2 154.7 28.6C154.2 28.3 153.9 27.8 153.4 27.5C152.9 27.2 152.6 26.7001 152.1 26.7001C151.6 26.4001 151 26.2 150.5 25.9H148.9C148.1 25.9 147.1 26.2001 146.3 26.7001C145.5 27.2001 144.7 27.8 144.2 28.8C143.4 29.9 142.9 30.9001 142.6 32.2001C142.3 33.5001 142.1 35.1001 142.1 36.7001C142.1 38.3001 142.4 39.6001 142.6 40.9001C142.6 42.0001 143.1 43 143.4 43.8C143.9 44.6 144.2 45.1 144.7 45.6C145.2 46.1 145.8 46.7001 146.3 46.9001C146.8 47.2001 147.4 47.4001 147.9 47.4001C148.4 47.7001 149 47.7001 149.5 47.7001C150.3 47.7001 151.1 47.7001 151.9 47.2001C152.7 46.9001 153.7 46.4 154.5 45.6C154.8 45.3 155 44.8 155.3 44.5C155.6 44.2 155.6 44.0001 155.8 43.7001C156.1 43.2001 156.3 42.9 156.3 42.6C156.6 42.1 156.6 41.8 156.8 41.3L157.6 41.8C157.3 42.1 157.3 42.6001 157.1 42.9001C156.8 43.4001 156.6 44 156.3 44.5C156 45 155.8 45.6 155.2 46.1C154.7 46.9 154.1 47.2001 153.6 47.7001C152.8 48.2001 152 48.5 151.2 48.8C150.4 49.3 149.6 49.3 148.6 49.3C147 49.3 146 49 144.7 48.5C143.4 47.7 142.3 46.9001 141.3 45.9001C140.5 44.8001 139.7 43.5001 138.9 42.2001C138.4 40.6001 138.1 39.0001 138.1 37.2001C138.1 35.4001 138.4 33.8001 138.9 32.2001C139.4 30.6001 140.2 29.3 141.3 28C142.1 26.9 143.4 26.2 144.5 25.4C145.8 24.9 147.1 24.3 148.7 24.3C150.3 24.3 150.5 24.6 151.3 24.8C151.8 25.1 152.4 25.3 152.9 25.6C153.2 25.6 153.4 25.9 153.7 25.9C154 26.2 154.2 26.2001 154.2 26.2001H154.5L154.8 26.5C154.8 26.5 154.8 26.2001 155.1 26.2001C155.1 26.2001 155.4 26.2 155.4 25.9C155.7 25.9 155.7 25.6 155.7 25.4C156 25.1 156 24.9 156 24.3H156.8L157.6 32.7001L157.3 33Z" fill="white"/>
<path d="M2.5 56.1H3.8V63.7H2.5V56.1ZM18 56.1H18.8L20.6 61.4V56.1H21.7V63.7H20.6L18.8 59V59.8C19.1 60.1 19.1 60.3 19.1 60.6V63.8H18V56.1ZM35.8 56.1H36.9C37.2 56.1 37.4 56.1 37.7 56.4H38.2C38.2 56.4 38.5 56.4 38.7 56.7C38.7 56.7 39 57 39 57.2C39.3 57.2 39.3 57.5 39.5 57.7V62.2C39.2 62.7 39.2 63 39 63C39 63.3 38.7 63.5 38.7 63.5C38.4 63.5 38.2 63.8 38.2 63.8H35.8V56.1ZM37.2 63H37.7C38 63 38 62.7 38.2 62.7V57.4C37.9 57.4 37.9 57.1 37.7 57.1H36.9V62.9L37.2 63ZM53.4 56.1H54.5V62.4C54.5 62.7 54.8 62.7 54.8 62.7C54.8 62.9 54.9 63 55.1 63H55.6L55.9 62.7V56.1H57.2V61.6C57.2 61.9 56.9 62.1 56.9 62.4C56.9 62.7 56.9 62.9 56.6 63.2C56.6 63.2 56.6 63.5 56.3 63.5C56.3 63.8 56 63.8 56 63.8C55.7 63.8 55.7 64.1 55.5 64.1H54.7L54.4 63.8C54.2 63.8 54 63.7 53.9 63.5L53.6 63.2C53.6 62.9 53.3 62.7 53.3 62.4L53.4 56.1ZM70.8 62.4V61.9C70.8 61.6 71.1 61.6 71.1 61.4H71.9V62.5L72.2 62.8C72.2 63 72.3 63.1 72.5 63.1H73.3C73.3 62.8 73.6 62.8 73.6 62.6C73.6 62.4 73.6 62.3 73.3 62.1V61.6C73 61.6 73 61.3 73 61.3L71.7 59.7C71.4 59.4 71.4 59.2 71.2 58.9C71.2 58.6 70.9 58.4 70.9 58.1C70.9 57.8 71.2 57.6 71.2 57.3C71.2 57 71.5 57 71.5 56.8C71.7 56.6 71.9 56.5 72 56.5C72.3 56.2 72.5 56.2 72.8 56.2C73.1 56.2 73.3 56.2 73.6 56.5C73.9 56.5 74.1 56.8 74.1 56.8C74.3 57 74.4 57.2 74.4 57.3C74.7 57.6 74.7 57.8 74.7 57.8V58.3C74.5 58.5 74.4 58.7 74.4 58.8H73.6V58.3C73.6 58 73.6 57.8 73.3 57.5C73.3 57.2 73 57.2 72.8 57.2H72.3V58.5C72.6 58.5 72.6 58.8 72.6 58.8L73.9 60.4C74.2 60.7 74.4 60.9 74.4 61.2C74.7 61.7 74.7 62 74.7 62.3C74.7 62.6 74.7 62.8 74.4 63.1C74.4 63.3 74.3 63.5 74.1 63.6C73.8 63.6 73.8 63.9 73.6 63.9C73.3 64.2 73.1 64.2 72.8 64.2C72.5 64.2 72.3 64.2 72 63.9C71.7 63.9 71.5 63.6 71.5 63.6C71.3 63.4 71.2 63.2 71.2 63.1C70.9 62.8 70.9 62.6 70.9 62.6L70.8 62.4ZM88.9 57.2H87.8V56.1H91.2V57.2H90.1V63.8H88.8L88.9 57.2ZM105 56.1H106.3C106.5 56.1 106.7 56.2 106.8 56.4H107.3C107.3 56.4 107.6 56.4 107.8 56.7C107.8 56.7 108.1 56.7 108.1 57C108.3 57.2 108.4 57.4 108.4 57.5C108.7 57.8 108.7 58 108.7 58.6C108.7 59.4 108.7 59.7 108.4 60.2C108.1 60.5 107.9 60.7 107.6 61L108.9 63.9H107.6L106.5 61.3H106.2V63.9H104.9V56.3L105 56.1ZM106.3 60.1H106.8C107 60.1 107.2 60 107.3 59.8V57.4C107.1 57.2 106.9 57.1 106.8 57.1H106.3V60.1ZM122.6 56.1H123.7V63.7H122.6V56.1ZM137.8 56.1H140.7V57.2H139.1V59.6H140.4V60.4H139.1V63H140.7V63.8H137.8V56.1ZM154.1 62.4C154.1 62.1 154.1 61.9 154.4 61.9V61.4H155.2V62.5L155.5 62.8C155.5 63 155.6 63.1 155.8 63.1H156.6C156.6 62.8 156.9 62.8 156.9 62.6V62.1C156.9 62.1 156.6 62.1 156.6 61.8V61.5C156.3 61.5 156.3 61.2 156.3 61.2L155 59.6C154.7 59.3 154.7 59.1 154.5 58.8V57.2C154.5 56.9 154.8 56.9 154.8 56.7C155.1 56.4 155.3 56.4 155.3 56.4C155.6 56.1 155.8 56.1 156.1 56.1C156.4 56.1 156.9 56.1 156.9 56.4C157.2 56.4 157.4 56.7 157.4 56.7C157.6 56.9 157.8 57.1 157.9 57.2V58.3C157.9 58.6 157.6 58.6 157.6 58.8H156.8V58.3C156.8 58 156.8 57.8 156.5 57.5C156.5 57.2 156.2 57.2 156 57.2H155.5V58.5C155.8 58.5 155.8 58.8 155.8 58.8L157.1 60.4C157.4 60.7 157.6 60.9 157.6 61.2C157.9 61.7 157.9 62 157.9 62.3V63.1C157.7 63.3 157.5 63.5 157.4 63.6C157.2 63.8 157.1 63.9 156.9 63.9C156.6 64.2 156.4 64.2 156.1 64.2C155.8 64.2 155.6 64.2 155.3 63.9C155 63.9 154.8 63.6 154.8 63.6C154.6 63.4 154.5 63.2 154.5 63.1C154.5 62.8 154.2 62.6 154.2 62.6L154.1 62.4Z" fill="white"/>
<path fill-rule="evenodd" clip-rule="evenodd" d="M2.2002 51.9H157.8V53H2.2002V51.9Z" fill="white"/>
</svg>
