<svg width="160" height="80" viewBox="0 0 160 80" fill="none" xmlns="http://www.w3.org/2000/svg">
<path d="M31.8999 11H32.1999C40.1999 11 48.2999 10.9 56.2999 11V21.9C51.5999 21.9 46.8999 21.9 42.1999 21.9C42.1999 24.7 42.1999 27.5 42.1999 30.3C42.6999 29.8 43.3999 29.7 44.0999 29.5C44.8999 29.3 45.6999 29.4 46.5999 29.4C49.0999 29.5 51.5999 30.3 53.4999 31.9C54.7999 33.1 55.8999 34.3 56.7999 35.8C57.6999 37.4 58.1999 39.2 58.2999 41.1C58.2999 46.6 58.2999 52.1 58.2999 57.5C58.2999 59.1 58.0999 60.8 57.4999 62.3C56.6999 64.4 55.1999 66.3 53.4999 67.8C51.2999 69.6 48.6999 70.1 45.8999 70.3H43.8999C42.3999 70.3 40.8999 70 39.4999 69.4C37.4999 68.6 35.7999 67 34.5999 65.2C33.4999 63.7 32.6999 61.9 32.3999 60.1C32.1999 59.3 32.1999 58.4 32.0999 57.6V49.9C32.5999 49.8 33.1999 49.9 33.6999 49.9H42.7999C42.7999 52.7 42.7999 55.6 42.7999 58.4C42.7999 58.9 42.7999 59.4 43.0999 59.8C43.4999 60.3 44.1999 60.5 44.7999 60.5C45.3999 60.5 46.1999 60.4 46.5999 59.9C46.9999 59.5 46.9999 59 46.9999 58.5C46.9999 53.6 46.9999 48.7 46.9999 43.8C46.9999 42.8 46.9999 41.8 46.1999 41C45.4999 40.2 44.0999 40.2 43.3999 41C42.7999 41.7 42.7999 42.7 42.7999 43.6C39.1999 43.6 35.6999 43.6 32.0999 43.6V42.6C31.9999 42.6 31.9999 11.2 31.9999 11.2L31.8999 11Z" fill="white"/>
<path d="M62 10.9H72C72.7 20.3 73.5 29.8 74.2 39.2C74.2 39.5 74.2 39.8 74.2 40.2C74.2 39.8 74.3 39.4 74.3 39C75.1 29.7 75.8 20.3 76.6 11C78 11 79.4 11 80.8 11C80.8 12 81.1 12.9 81.4 13.8C82.1 15.1 82.9 16.4 84 17.4C84.8 18 85.6 18.6 86.5 19C86.5 29.4 86.5 39.8 86.5 50.1C84.3 50.1 82 50.1 79.8 50.1C79.8 42.8 79.8 35.4 79.8 28.1C78.9 35.4 78.1 42.8 77.2 50.1C75.3 50.1 73.3 50.1 71.4 50.1C70.6 43.4 69.8 36.6 69 29.9C69 29.3 68.9 28.7 68.8 28.1C68.8 28.8 68.8 29.4 68.8 30.1C68.8 36.8 68.8 43.5 68.8 50.2H62.1C62.1 37.1 62.1 24.1 62 10.9Z" fill="white"/>
<path d="M112.1 10.9H115.3C116.8 18.2 118.3 25.4 119.8 32.7C119.8 25.4 119.8 18.2 119.8 10.9H126.6C126.6 24 126.6 37 126.6 50.1C124.3 50.1 121.9 50.1 119.6 50.1C118 43.1 116.5 36.1 114.9 29.1C114.9 36.1 114.9 43.1 114.9 50.1H108.1C108.1 39.8 108.1 29.5 108.1 19.2C108.1 18.8 108.1 18.4 108.1 18C108.6 17.6 109.1 17.2 109.5 16.8C111.1 15.3 111.9 13.2 112.1 10.9Z" fill="white"/>
<path d="M90 20.2C91.4 20.5 92.8 20.7999 94.3 20.7999C95.5 20.7999 96.8 20.7999 98 20.7999C98 23.1999 98 25.6 98 28H103.3V33.7C101.5 33.7 99.8 33.7 98 33.7C98 36.9 98 40.0999 98 43.2999C100.4 43.2999 102.8 43.2999 105.2 43.2999C105.2 45.5999 105.2 47.8999 105.2 50.0999H90C90 40.0999 90 30.2 90 20.2Z" fill="white"/>
<path d="M67.1 51.7C68.8 51.9 70.2 53.5 70.3 55.3C70.3 56.6 70.3 57.9 70.3 59.3H66.7C66.7 58 66.7 56.7 66.7 55.4C66.7 54.8 65.8 54.7 65.5 55.1C65.5 55.5 65.5 55.9 65.5 56.2C65.5 59.5 65.5 62.9 65.5 66.2C65.5 66.4 65.5 66.6 65.6 66.8C66 67.1 66.7 67 66.8 66.5C66.8 65.4 66.8 64.3 66.8 63.2C66.6 63.2 66.3 63.2 66.1 63.2C66.1 62.5 66.1 61.8 66.1 61.1C67.5 61.1 68.9 61.1 70.3 61.1C70.3 64 70.3 66.9 70.3 69.8C70 69.8 69.6 69.8 69.3 69.8C69.3 69.5 69.3 69.2 69.2 69C68.9 69.3 68.5 69.6 68.1 69.8C67.6 70.1 67 70.1 66.5 70.2H65.8C65 70.2 64.2 70 63.6 69.5C62.6 68.8 62 67.6 62 66.4C62 63 62 59.6 62 56.3C62 55.8 62 55.3 62 54.8C62.2 53.8 62.8 52.9 63.6 52.3C64.6 51.6 66 51.6 67.1 51.7Z" fill="white"/>
<path d="M122.6 51.6C123.7 51.6 124.8 51.9 125.5 52.7C126.3 53.5 126.6 54.5 126.7 55.7V59.2C125.5 59.2 124.3 59.2 123.1 59.2C123.1 57.9 123.1 56.5 123.1 55.2C123.1 54.6 121.8 54.7 121.9 55.4C121.9 59.1 121.9 62.8 121.9 66.4C121.9 67 122.6 67.2 123 66.9C123.2 66.7 123.2 66.5 123.2 66.3C123.2 65.3 123.2 64.3 123.2 63.3C123 63.3 122.7 63.3 122.5 63.3C122.5 62.6 122.5 61.9 122.5 61.2C123.9 61.2 125.3 61.2 126.8 61.2V69.9C126.4 69.9 126.1 69.9 125.7 69.9C125.7 69.6 125.7 69.3 125.6 69.1C125.3 69.4 124.9 69.7 124.5 69.9C124 70.2 123.4 70.2 122.9 70.3H122.2C121.4 70.3 120.6 70.1 120 69.6C119 68.9 118.4 67.7 118.4 66.4C118.4 62.8 118.4 59.2 118.4 55.6C118.4 54.4 118.8 53.5 119.7 52.7C120.5 51.9 121.6 51.7 122.8 51.7L122.6 51.6Z" fill="white"/>
<path d="M85.2998 51.9001C86.7998 51.9001 88.2998 51.9001 89.8998 51.9001C90.1998 56.3001 90.5998 60.7 90.8998 65.1C90.9998 64.4 90.9998 63.7 91.0998 63C91.3998 59.3 91.6998 55.6 91.9998 51.8H96.5998V69.8001C95.5998 69.8001 94.4998 69.8001 93.4998 69.8001C93.4998 66.5001 93.4998 63.2001 93.4998 59.9001C93.0998 63.2001 92.6998 66.5001 92.2998 69.8001C91.3998 69.8001 90.4998 69.8001 89.5998 69.8001C89.1998 66.5001 88.7998 63.2 88.3998 59.8C88.3998 63.1 88.3998 66.4001 88.3998 69.8001H85.2998C85.2998 63.8001 85.2998 57.8001 85.2998 51.9001Z" fill="white"/>
<path d="M99.8999 51.9C101.1 51.9 102.3 51.9 103.5 51.9C103.5 57.9 103.5 63.9 103.5 69.9H99.8999C99.8999 63.9 99.8999 57.9 99.8999 51.9Z" fill="white"/>
<path d="M106.8 51.9H110.2C110.9 55.2 111.6 58.5 112.2 61.8C112.2 58.5 112.2 55.2 112.2 51.9H115.4C115.4 57.9 115.4 63.9 115.4 69.9C114.3 69.9 113.2 69.9 112.2 69.9C111.5 66.7 110.8 63.5 110 60.3C110 63.5 110 66.7 110 69.9H106.8C106.8 63.9 106.8 57.9 106.8 51.9Z" fill="white"/>
<path fill-rule="evenodd" clip-rule="evenodd" d="M77.1999 51.9C76.7999 51.9 76.2999 51.9 75.8999 51.9C74.8999 57.9 73.8999 63.9 72.8999 69.9C73.7999 69.9 74.7999 69.9 75.6999 69.9C75.9999 69.9 76.2999 69.9 76.5999 69.9C76.5999 69.3 76.6999 68.7 76.7999 68.1C76.7999 67.8 76.7999 67.5 76.7999 67.2C76.8999 67.2 77.0999 67.2 77.1999 67.2C77.5999 67.2 78.0999 67.2 78.4999 67.2C78.4999 67.5 78.4999 67.8 78.4999 68.1C78.4999 68.7 78.5999 69.3 78.6999 69.9C79.5999 69.9 80.4999 69.9 81.2999 69.9C81.6999 69.9 81.9999 69.9 82.3999 69.9C81.9999 67.7 81.6999 65.5 81.2999 63.3C80.6999 59.5 79.9999 55.7 79.3999 51.9C78.5999 51.9 77.7999 51.9 77.0999 51.9H77.1999ZM77.6999 58C77.6999 57.9 77.6999 57.7 77.6999 57.6C77.6999 59 77.4999 60.5 77.2999 61.9C77.2999 62.8 77.0999 63.6 77.0999 64.5C77.4999 64.5 77.8999 64.5 78.2999 64.5C78.2999 63.8 78.1999 63.1 78.0999 62.4C77.9999 60.9 77.8999 59.5 77.6999 58Z" fill="white"/>
</svg>
