<svg width="160" height="80" viewBox="0 0 160 80" fill="none" xmlns="http://www.w3.org/2000/svg">
<path fill-rule="evenodd" clip-rule="evenodd" d="M20.2999 52.5C20.7999 52.5 21.0999 52.5 21.3999 52.5C21.1999 52.8 21.0999 52.9 20.9999 53.1C18.6999 56.4 16.3999 59.7 14.1999 63C13.7999 63.5 13.5999 63.7 13.0999 63.2C7.19994 57.9 3.39994 51.5 2.39994 43.6C1.39994 35 3.79994 27.3 9.39994 20.7C13.6999 15.7 19.1999 12.5 25.5999 11.1C30.7999 9.99996 35.9999 10.4 40.9999 11.9C43.4999 12.7 45.7999 13.6 47.9999 15.1C48.5999 15.5 48.5999 15.7 48.1999 16.2C45.3999 19.9 42.6999 23.6 39.8999 27.4C39.5999 27.8 39.2999 28.1 38.7999 28C38.0999 27.9 37.6999 28.2 37.2999 28.7C35.4999 31.2 33.6999 33.7 31.7999 36.3C29.9999 33.7 28.1999 31.2 26.4999 28.7C26.0999 28.1 25.6999 27.9 24.9999 27.9H19.9999C19.9999 28.3 20.2999 28.6 20.4999 28.8C23.0999 32.5 25.6999 36.2 28.2999 39.8C28.6999 40.3 28.6999 40.7 28.2999 41.2C25.6999 44.8 22.9999 48.4 20.2999 52.2V52.5ZM18.1999 41.2V32.3C18.1999 30.2 16.8999 28.8 14.7999 28.5C13.1999 28.2 11.5999 28.4 9.99994 28.4C8.39994 28.4 8.39994 28 8.39994 30.1C8.39994 32.2 8.59994 30.8 9.09994 30.8C11.4999 30.8 11.8999 31.3 11.8999 33.7V50.1C11.8999 50.8 12.0999 51.1 12.7999 51H17.4999C18.0999 51 18.2999 50.8 18.2999 50.2V41.3L18.1999 41.2Z" fill="white"/>
<path fill-rule="evenodd" clip-rule="evenodd" d="M32.6001 44.5C34.5001 47.1 36.3001 49.5999 38.0001 52.0999C38.4001 52.6999 38.8001 52.8999 39.4001 52.7999H44.5001C43.6001 51.3999 42.7001 50.2 41.8001 49C39.9001 46.3 38.0001 43.4999 36.0001 40.7999C35.6001 40.2999 35.6001 40 36.0001 39.4C38.4001 36.1 40.8001 32.8 43.3001 29.4C43.5001 29.1 43.7001 28.8 44.0001 28.4C43.7001 28.1 43.3001 28.4 43.1001 28.2C43.1001 28 43.1001 27.8999 43.1001 27.7999C45.4001 24.3999 47.8001 21 50.1001 17.6C50.5001 17 50.7001 16.9999 51.2001 17.4999C56.3001 21.9999 59.9001 27.5 61.4001 34.2C63.1001 41.9 61.9001 49.1 57.8001 55.9C53.4001 63.2 46.9001 67.7999 38.6001 69.5999C31.0001 71.1999 23.7001 70.0999 16.9001 66.0999C16.2001 65.6999 16.1001 65.3999 16.6001 64.6999C19.2001 60.9999 21.7001 57.2 24.3001 53.5C24.6001 53.1 24.9001 52.6999 25.5001 52.7999C26.2001 52.7999 26.6001 52.5 27.0001 52C28.8001 49.5 30.6001 47 32.5001 44.4L32.6001 44.5ZM45.3001 37.9C46.5001 37.1 47.4001 36.3 48.4001 35.7C49.5001 35 50.5001 34.1999 50.1001 32.5999V32.2C50.3001 31.3 50.8001 30.9 51.7001 30.9C52.6001 30.9 53.5001 30.9999 53.7001 32.0999C54.0001 34.1999 54.0001 36.2 52.0001 37.7C50.7001 38.7 49.4001 39.7 48.1001 40.7C46.2001 42.1 44.9001 43.8 45.2001 46.4C45.2001 47.6 45.2001 48.7 45.2001 49.9C45.2001 51.1 45.4001 50.7999 46.1001 50.7999H56.8001C60.4001 50.7999 58.6001 50.8 58.6001 48.9C58.6001 47 58.4001 47.7999 57.6001 47.7999H50.9001C50.3001 47.7999 50.1001 47.6 50.1001 47C50.1001 45.4 50.5001 44.1 51.7001 43C53.1001 41.6 54.7001 40.6 56.2001 39.4C57.5001 38.3 58.6001 37.1999 58.7001 35.2999V32.7C58.7001 30.6 57.9001 29.5 55.9001 28.9C53.4001 28.1 50.9001 28 48.4001 28.9C46.5001 29.5 45.4001 31.0999 45.3001 33.0999V37.9Z" fill="white"/>
<path fill-rule="evenodd" clip-rule="evenodd" d="M82.4001 33.4V38.6C82.4001 38.9 82.4001 39.3 82.4001 39.6C82.6001 37.2 84.1001 35.9 86.2001 35.1C87.6001 34.6 89.0001 34.3 90.5001 34.4C91.3001 34.4 91.2001 34.1 91.0001 33.6C90.7001 33 90.2001 32.7 89.5001 32.6C87.9001 32.4 86.4001 32.6 85.0001 33.4C84.5001 33.6 84.2001 33.7 84.2001 33.1C84.2001 32.5 84.2001 32.6 84.0001 32.4C83.6001 31.1 84.1001 30.2 85.4001 29.7C87.2001 29.1 89.2001 29 91.1001 29.2C94.1001 29.6 95.9001 31.6 96.1001 34.7C96.1001 36.1 96.1001 37.4 96.1001 38.8C96.1001 40.2 96.1001 42.2 96.3001 43.9C96.3001 44.5 96.3001 44.7 95.6001 44.7H93.6001C92.7001 44.7 91.5001 45 91.7001 43.3C88.3001 46.3 83.2001 45.1 82.5001 41.1C82.1001 41.9 82.5001 42.8 82.2001 43.6C82.0001 47.3 80.5001 49.5 77.5001 50.5C75.6001 51.1 73.6001 51.1 71.6001 50.9C69.6001 50.7 69.7001 50.5 68.8001 50.2C68.3001 50 68.2001 49.8 68.4001 49.3C68.7001 48.4 68.9001 47.6 69.1001 46.7C69.1001 46.1 69.4001 46.1 69.9001 46.4C70.9001 46.9 71.9001 47.1 73.0001 47.3C76.0001 47.6 77.5001 46.2 77.5001 43.1C76.9001 43.5 76.3001 44 75.7001 44.3C72.9001 45.3 69.6001 44.3 68.2001 41.5C66.6001 38.3 66.8001 35.2 68.7001 32.2C70.5001 29.3 75.3001 28 78.1001 31C78.4001 30.1 79.0001 29.6 80.1001 29.6C80.9001 29.6 82.0001 29.3 82.4001 29.7C82.9001 30.2 82.4001 31.3 82.4001 32.1V33.6L82.2001 33.4H82.4001ZM110.3 31.5C111.6 29.8 113.2 28.9 115.3 29C118 29.1 119.8 30.9 120.1 33.9C120.5 37.3 120.1 40.7 120.3 44.1C120.3 44.5 120.1 44.6 119.8 44.6H116C115.3 44.6 115.5 44.2 115.5 43.8V36.7C115.5 35.9 115.5 35.2 115.2 34.4C114.9 33.5 114.3 33 113.3 33C112.3 33 111.5 33.8 111.4 34.6C111.4 35.1 111.2 35.7 111.2 36.2V43.7C111.2 44.3 111 44.5 110.4 44.5H107.2C106.5 44.5 106.3 44.3 106.4 43.6V36.4C106.4 35.8 106.4 35.2 106.4 34.7C106.1 33.5 105.5 32.9 104.5 32.9C103.5 32.9 102.6 33.8 102.4 34.8V43.6C102.4 44.2 102.4 44.5 101.6 44.5H98.3001C97.8001 44.5 97.6001 44.5 97.6001 43.9C97.6001 39.2 97.6001 34.6 97.6001 29.9C97.6001 29.4 97.8001 29.2 98.3001 29.3H100.9C101.6 29.3 102 29.4 101.9 30.2C101.9 30.4 101.9 30.7 101.9 31.1C103.1 29.7 104.6 28.9 106.4 29C108.2 29 109.7 29.8 110.6 31.5H110.3ZM152.7 42.9C150.7 44.7 148.4 45 146.1 43.9C143.6 42.8 142.6 40.6 142.3 38C142.1 35.2 142.7 32.6 144.9 30.6C146.9 28.8 150.9 28.2 153 30.8H153.1C153.2 29.9 153.8 29.5 154.7 29.5C155.6 29.5 156.9 29.2 157.4 29.7C158 30.3 157.5 31.5 157.5 32.5C157.5 36.3 157.5 40.1 157.4 44C157.4 47.5 155.5 49.9 152.5 50.8C150.6 51.3 148.7 51.3 146.8 51.1C145.8 51.1 144.8 50.7 143.9 50.3C143.6 50.1 143.4 50 143.5 49.6C143.8 48.5 144.1 47.4 144.4 46.3C145.8 47.1 147.2 47.5 148.7 47.5C151.3 47.5 152.5 46.2 152.5 43.2L152.7 42.9ZM131.9 31.2C133.2 29.7 134.8 28.9 136.7 29C139.3 29 141 30.5 141.7 32.9C141.9 33.7 142 34.5 142 35.4V43.8C142 44.4 141.9 44.6 141.3 44.6H137.8C137.2 44.6 137.1 44.4 137.1 43.9V37.4C137.1 36.7 137.1 36 137 35.4C136.8 33.8 136.1 33 134.8 33.1C133.5 33.1 132.5 34.2 132.5 35.6V43.5C132.5 44.5 132.2 44.7 131.3 44.6H128.3C127.7 44.6 127.5 44.6 127.5 43.9C127.5 39.3 127.5 34.7 127.5 30.1C127.5 29.5 127.5 29.3 128.2 29.3H130.6C131.5 29.2 131.9 29.5 131.9 30.4V31.2ZM121.4 36.9V30.1C121.4 29.5 121.4 29.3 122.2 29.3H125.8C126.3 29.3 126.5 29.5 126.5 30V43.9C126.5 44.4 126.5 44.6 125.8 44.6H122.2C121.6 44.6 121.5 44.4 121.5 43.9V36.9H121.4ZM152.7 36.7V35.1C152.5 34.1 152 33.4 151 33C150 32.7 149.1 33 148.4 33.7C147 35.1 146.9 38.3 148.2 39.8C148.9 40.6 149.7 40.9 150.7 40.7C151.7 40.4 152.4 39.8 152.6 38.7C152.7 38 152.7 37.3 152.7 36.7ZM77.4001 36.8V35.2C77.4001 34.2 76.8001 33.4 75.8001 33.1C74.8001 32.7 73.9001 33.1 73.1001 33.8C71.8001 35.2 71.7001 38.5 72.9001 39.9C73.6001 40.7 74.4001 41 75.5001 40.8C76.6001 40.5 77.2001 39.7 77.3001 38.6V36.9L77.4001 36.8ZM90.7001 37.6C89.9001 37.6 89.2001 37.6 88.5001 38.1C87.6001 38.6 87.3001 39.5 87.6001 40.4C87.9001 41.2 88.9001 41.5 89.8001 41.2C91.0001 40.8 91.5001 40 91.5001 38.4C91.5001 36.8 91.5001 37.3 90.6001 37.6H90.7001Z" fill="white"/>
<path fill-rule="evenodd" clip-rule="evenodd" d="M123.9 27.8C122.4 27.8 121.3 26.8 121.3 25.4C121.3 24 122.4 22.9 123.9 22.9C125.4 22.9 126.5 23.9 126.5 25.4C126.5 26.9 125.4 27.8 123.9 27.8Z" fill="white"/>
</svg>
