<svg width="160" height="80" viewBox="0 0 160 80" fill="none" xmlns="http://www.w3.org/2000/svg">
<path fill-rule="evenodd" clip-rule="evenodd" d="M116.6 41.7999L119.2 43.7L117 46.2999L104.6 47.5999L92.0999 48.9C88.2999 51.4 84.2999 53.8999 80.3999 56.2999C77.4999 54.5999 74.6999 52.8 71.8999 51L40.8999 54.2999L69.5999 49.5C64.2999 46 59.1999 42.3 54.1999 38.5L61.2999 34.4L62.4999 34.7999L56.8999 3.89995L79.8999 2.69995L103.7 3.99995L98.2999 34.7L99.0999 34.5C101.6 35.9 104.1 37.1999 106.6 38.5999C103.8 40.7999 101 42.9 97.9999 44.9L116.7 41.7999H116.6ZM68.3999 70.1C68.3999 70.4 70.5999 71.6 72.3999 71.1C73.0999 70.9 72.7999 69.9 72.3999 69.5C72.0999 69.1 68.4999 69.3 67.5999 68C65.4999 64.9 67.1999 62.1 69.5999 61.5C71.5999 61 75.1999 61.3999 75.9999 62.7999L73.8999 65C72.9999 64.2 71.7999 64.1999 71.3999 64.1999C70.9999 64.1999 70.6999 64.3 70.4999 64.5C70.2999 64.7 70.1999 64.8999 70.1999 65.1999C70.1999 65.4999 70.2999 65.5999 70.4999 65.6999C70.6999 65.8999 71.0999 65.9999 71.6999 66.1999C73.3999 66.5999 74.8999 66.1 75.8999 68.1C76.1999 68.6 76.3999 69.3 76.3999 70C76.3999 70.7 76.1999 71.6 75.7999 72.2C75.3999 72.9 74.7999 73.4 74.0999 73.8C73.2999 74.2 72.2999 74.5 71.1999 74.5C70.0999 74.5 66.8999 73.6 66.2999 72.5L68.4999 70.3L68.3999 70.1ZM105.6 61.9V64.5999H107.4V67.2H105.6V70.5C105.6 70.9 105.6 71.2 105.7 71.3C105.8 71.5 106 71.6 106.3 71.6C106.6 71.6 106.9 71.6 107.3 71.4V73.9C106.6 74 105.9 74.1 105.3 74.1C104.7 74.1 103.9 74 103.5 73.7C103.1 73.5 102.8 73.1 102.6 72.7C102.4 72.2 102.3 71.5 102.3 70.5V67.2H101.1V64.5999H102.3V61.9H105.5H105.6ZM98.1999 61.9V64.5999H99.9999V67.2H98.1999V70.5C98.1999 70.9 98.1999 71.2 98.2999 71.3C98.3999 71.5 98.5999 71.6 98.8999 71.6C99.1999 71.6 99.4999 71.6 99.8999 71.4V73.9C99.1999 74 98.4999 74.1 97.8999 74.1C97.2999 74.1 96.4999 74 96.0999 73.7C95.6999 73.5 95.3999 73.1 95.2999 72.7C95.0999 72.2 94.9999 71.5 94.9999 70.5V67.2H93.7999V64.5999H94.9999V61.9H98.1999ZM43.7999 61.2H47.2999L49.6999 65.9L52.4999 61.2H55.6999V73.9H52.3999V67.8L49.7999 72.5L47.2999 67.9V77.2H43.8999V61.2H43.7999ZM57.3999 64.3H60.4999V65.9C60.7999 65.2 61.0999 64.7 61.3999 64.5C62.5999 63.6 64.4999 64.3 65.1999 65.3L62.6999 67.7C62.4999 67.6 61.1999 66.7 60.7999 67.9C60.5999 68.5 60.6999 69.1 60.6999 70.6V73.8H57.2999V64.1999L57.3999 64.3ZM77.6999 61.0999H80.8999V74H77.6999V61.0999ZM85.7999 69.1C85.7999 69.9 85.9999 70.5 86.2999 70.9C86.5999 71.3 86.9999 71.5 87.4999 71.5C87.9999 71.5 88.3999 71.3 88.6999 70.9C88.9999 70.5 89.1999 69.9 89.1999 69C89.1999 68.1 88.9999 67.6 88.6999 67.2C88.3999 66.8 87.9999 66.5999 87.4999 66.5999C86.9999 66.5999 86.5999 66.8 86.1999 67.2C85.8999 67.6 85.6999 68.2 85.6999 69L85.7999 69.1ZM82.3999 69.1C82.3999 67.7 82.8999 66.4999 83.7999 65.5999C84.6999 64.6999 85.9999 64.1999 87.4999 64.1999C88.9999 64.1999 90.6999 64.7 91.5999 65.8C92.2999 66.7 92.6999 67.7 92.6999 69C92.6999 70.3 92.2999 71.6 91.2999 72.5C90.3999 73.4 89.0999 73.9 87.4999 73.9C85.8999 73.9 84.8999 73.5 83.9999 72.8C82.8999 71.8 82.3999 70.6 82.3999 69.1ZM107.9 64.4H111.3L113 69.4L114.6 64.4H117.8L114.4 74.2C114 75.3 113.6 76.1 113.2 76.5C112.3 77.3 110.4 77.5 109.2 77.3V74.4C109.8 74.6 110.8 74.8 111.2 73.4L107.7 64.4H107.9ZM75.4999 50.7L73.6999 48.9L64.8999 40.2L61.3999 35.7999C59.8999 36.6999 58.3999 37.6999 56.8999 38.5999C61.4999 42.3999 66.1999 45.9999 71.0999 49.2999H71.1999C73.1999 50.5999 75.2999 51.9 77.2999 53.2L73.1999 49.0999L75.4999 50.7ZM80.2999 47.9V49.4L96.2999 39.0999L89.9999 42.7999L85.6999 33.9V44.4L80.2999 46.5999V47.9ZM58.4999 5.29995L64.4999 39.7L68.2999 41.4L66.7999 25.7999L70.8999 35.5999L74.8999 29.2V44.5999L80.1999 46.5999L79.9999 13.6L75.0999 11.7L70.1999 19.4L66.4999 8.39995L58.4999 5.29995ZM96.3999 39.0999L104.2 38.7999L98.6999 36.2L96.5999 38.2L98.9999 24C98.4999 26.9 95.9999 28.6999 92.0999 30.4L96.4999 39.0999H96.3999ZM93.6999 8.49995L102.3 5.29995C101.8 8.09995 101.4 10.9 100.9 13.8C100.9 9.29995 98.1999 7.89995 93.6999 8.59995V8.49995ZM93.0999 19.2C93.5999 15.6 89.6999 17.1999 85.8999 18.7999V25.7C89.1999 24.8 92.3999 23.7 93.0999 19.2Z" fill="white"/>
</svg>
